<svg width="64" height="64" viewBox="0 0 64 64" fill="none" xmlns="http://www.w3.org/2000/svg">
<path d="M3.00633 45.5593C5.79252 51.5067 10.3548 56.4562 16.0103 59.7249L26.6701 41.2416C24.7849 40.1521 23.2642 38.5022 22.3354 36.5198L3.00633 45.5593Z" fill="#D4E157"/>
<path d="M0.564941 25.9823C0.194085 27.9313 0 29.943 0 32C0 36.847 1.07762 41.4422 3.00633 45.5593L22.3354 36.5198C21.6925 35.1474 21.3333 33.6157 21.3333 32C21.3333 31.3143 21.398 30.6438 21.5216 29.9941L0.564941 25.9823Z" fill="#FFEE58"/>
<path d="M8.65818 10.1101C4.59305 14.4432 1.72065 19.9086 0.564941 25.9823L21.5216 29.9941C21.9069 27.9695 22.8643 26.1477 24.2194 24.7034L8.65818 10.1101Z" fill="#FFA726"/>
<path d="M32.1775 0.000481885C32.1184 0.000160766 32.0592 0 32 0C22.7941 0 14.4962 3.88737 8.65818 10.1101L24.2194 24.7034C26.1654 22.6291 28.9314 21.3333 32 21.3333L32.0592 21.3335L32.1775 0.000481885Z" fill="#FF7043"/>
<path d="M35.5802 0.198041C34.4624 0.0735897 33.3271 0.00672552 32.1775 0.000481885L32.0592 21.3335C32.4424 21.3356 32.8208 21.3579 33.1934 21.3993L35.5802 0.198041Z" fill="#EF5350"/>
<path d="M54.8494 9.59674C49.8272 4.47517 43.0967 1.03484 35.5802 0.198041L33.1934 21.3993C35.6989 21.6783 37.9424 22.8251 39.6165 24.5322L54.8494 9.59674Z" fill="#EC407A"/>
<path d="M63.7011 27.6078C62.7443 20.6377 59.5428 14.383 54.8494 9.59674L39.6165 24.5322C41.1809 26.1277 42.2481 28.2126 42.567 30.5359L63.7011 27.6078Z" fill="#AB47BC"/>
<path d="M62.627 41.3022C63.5199 38.3585 64 35.2353 64 32C64 30.51 63.8982 29.0437 63.7011 27.6078L42.567 30.5359C42.6327 31.0146 42.6667 31.5033 42.6667 32C42.6667 33.0784 42.5066 34.1195 42.209 35.1007L62.627 41.3022Z" fill="#7E57C2"/>
<path d="M45.945 60.8098C53.9037 56.9504 60.022 49.8902 62.627 41.3022L42.209 35.1007C41.3407 37.9634 39.3012 40.3168 36.6483 41.6033L45.945 60.8098Z" fill="#5C6BC0"/>
<path d="M39.3988 63.1404C41.6855 62.5991 43.8774 61.8125 45.945 60.8098L36.6483 41.6033C35.9591 41.9375 35.2285 42.1997 34.4663 42.3801L39.3988 63.1404Z" fill="#42A5F5"/>
<path d="M34.2308 63.9235C35.9967 63.8019 37.7232 63.537 39.3988 63.1404L34.4663 42.3801C33.9077 42.5123 33.3322 42.6006 32.7436 42.6412L34.2308 63.9235Z" fill="#29B6F6"/>
<path d="M23.5272 62.8663C26.2258 63.6054 29.0668 64 32 64C32.7499 64 33.4938 63.9742 34.2308 63.9235L32.7436 42.6412C32.4979 42.6581 32.25 42.6667 32 42.6667C31.0223 42.6667 30.0753 42.5351 29.1757 42.2888L23.5272 62.8663Z" fill="#26C6DA"/>
<path d="M18.1961 60.8778C19.8955 61.6916 21.6779 62.3598 23.5272 62.8663L29.1757 42.2888C28.5593 42.1199 27.9652 41.8972 27.3987 41.6259L18.1961 60.8778Z" fill="#26A69A"/>
<path d="M16.0103 59.7249C16.722 60.1363 17.4511 60.521 18.1961 60.8778L27.3987 41.6259C27.1504 41.507 26.9073 41.3788 26.6701 41.2416L16.0103 59.7249Z" fill="#9CCC65"/>
</svg>
