<svg width="53" height="53" viewBox="0 0 53 53" fill="none" xmlns="http://www.w3.org/2000/svg">
<path d="M26.6414 1.00038C26.5943 1.00013 26.5472 1 26.5 1C19.1641 1 12.5517 4.09775 7.89949 9.05652L26.5 26.5L26.6414 1.00038Z" fill="#FF7043"/>
<path d="M26.5 26.5L29.353 1.15781C28.4622 1.05864 27.5575 1.00536 26.6414 1.00038L26.5 26.5Z" fill="#EF5350"/>
<path d="M26.5 26.5L44.7081 8.6474C40.706 4.56615 35.3427 1.82463 29.353 1.15781L26.5 26.5Z" fill="#EC407A"/>
<path d="M26.5 26.5L7.89949 9.05652C4.66009 12.5094 2.37114 16.8646 1.45019 21.7047L26.5 26.5Z" fill="#FFA726"/>
<path d="M1.45019 21.7047C1.15466 23.2578 1 24.8608 1 26.5C1 30.3624 1.85872 34.0243 3.39567 37.305L26.5 26.5L1.45019 21.7047Z" fill="#FFEE58"/>
<path d="M13.7582 48.5933L26.5 26.5L3.39567 37.305C5.61591 42.0444 9.25148 45.9885 13.7582 48.5933Z" fill="#D4E157"/>
<path d="M15.5 49.512L26.5 26.5L13.7582 48.5933C14.3254 48.9211 14.9063 49.2277 15.5 49.512Z" fill="#9CCC65"/>
<path d="M26.5 26.5L15.5 49.512C16.8542 50.1605 18.2746 50.693 19.7482 51.0966L26.5 26.5Z" fill="#26A69A"/>
<path d="M19.7482 51.0966C21.8987 51.6855 24.1626 52 26.5 52C27.0976 52 27.6903 51.9794 28.2776 51.939L26.5 26.5L19.7482 51.0966Z" fill="#26C6DA"/>
<path d="M26.5 26.5L28.2776 51.939C29.6849 51.8421 31.0607 51.631 32.3959 51.315L26.5 26.5Z" fill="#29B6F6"/>
<path d="M26.5 26.5L32.3959 51.315C34.2182 50.8836 35.9648 50.2568 37.6124 49.4578L26.5 26.5Z" fill="#42A5F5"/>
<path d="M26.5 26.5L37.6124 49.4578C43.9545 46.3823 48.83 40.7563 50.9059 33.9127L26.5 26.5Z" fill="#5C6BC0"/>
<path d="M50.9059 33.9127C51.6174 31.5669 52 29.0781 52 26.5C52 25.3126 51.9188 24.1442 51.7618 23L26.5 26.5L50.9059 33.9127Z" fill="#7E57C2"/>
<path d="M26.5 26.5L51.7618 23C50.9994 17.4456 48.4482 12.4615 44.7081 8.6474L26.5 26.5Z" fill="#AB47BC"/>
<path d="M13.508 49.0262C14.0863 49.3604 14.6787 49.6731 15.284 49.9629C16.6649 50.6242 18.1134 51.1672 19.6161 51.5788C21.8093 52.1794 24.1176 52.5 26.5 52.5C27.109 52.5 27.7133 52.479 28.312 52.4378C29.7466 52.339 31.1495 52.1238 32.5111 51.8015C34.3694 51.3617 36.1505 50.7224 37.8306 49.9077C44.2966 46.7721 49.2675 41.0365 51.3843 34.0578C52.11 31.6655 52.5 29.1279 52.5 26.5C52.5 25.2898 52.4173 24.0987 52.2571 22.932C51.4796 17.2677 48.8779 12.1856 45.0651 8.29733C40.9852 4.13672 35.5164 1.34089 29.4083 0.660884C28.5001 0.559771 27.5779 0.505462 26.6442 0.500391C26.5961 0.500131 26.5481 0.5 26.5 0.5C19.0203 0.5 12.2776 3.65911 7.53484 8.71442C4.23241 12.2345 1.8982 16.6753 0.959 21.6112C0.657642 23.195 0.5 24.8293 0.5 26.5C0.5 30.4372 1.37549 34.1714 2.94289 37.5172C5.20673 42.3496 8.91324 46.3706 13.508 49.0262Z" stroke="white"/>
</svg>
