<svg width="30" height="30" viewBox="0 0 30 30" fill="none" xmlns="http://www.w3.org/2000/svg">
<mask id="mask0_276_3185" style="mask-type:alpha" maskUnits="userSpaceOnUse" x="0" y="0" width="30" height="30">
<rect width="30" height="30" fill="#D9D9D9"/>
</mask>
<g mask="url(#mask0_276_3185)">
<path d="M13.9583 16.0417H7.29166C6.99653 16.0417 6.74914 15.9415 6.54947 15.7411C6.34982 15.5408 6.25 15.2925 6.25 14.9963C6.25 14.7002 6.34982 14.4531 6.54947 14.2552C6.74914 14.0573 6.99653 13.9583 7.29166 13.9583H13.9583V7.29166C13.9583 6.99653 14.0585 6.74914 14.2589 6.54947C14.4592 6.34982 14.7075 6.25 15.0037 6.25C15.2998 6.25 15.5469 6.34982 15.7448 6.54947C15.9427 6.74914 16.0417 6.99653 16.0417 7.29166V13.9583H22.7083C23.0035 13.9583 23.2509 14.0585 23.4505 14.2589C23.6502 14.4592 23.75 14.7075 23.75 15.0037C23.75 15.2998 23.6502 15.5469 23.4505 15.7448C23.2509 15.9427 23.0035 16.0417 22.7083 16.0417H16.0417V22.7083C16.0417 23.0035 15.9415 23.2509 15.7411 23.4505C15.5408 23.6502 15.2925 23.75 14.9963 23.75C14.7002 23.75 14.4531 23.6502 14.2552 23.4505C14.0573 23.2509 13.9583 23.0035 13.9583 22.7083V16.0417Z" fill="black"/>
</g>
</svg>
