<svg width="31" height="30" viewBox="0 0 31 30" fill="none" xmlns="http://www.w3.org/2000/svg">
<mask id="mask0_279_3227" style="mask-type:alpha" maskUnits="userSpaceOnUse" x="0" y="0" width="31" height="30">
<rect x="0.5" width="30" height="30" fill="#D9D9D9"/>
</mask>
<g mask="url(#mask0_279_3227)">
<path d="M14.4583 16.0417H7.79166C7.49653 16.0417 7.24914 15.9415 7.04947 15.7411C6.84982 15.5408 6.75 15.2925 6.75 14.9963C6.75 14.7002 6.84982 14.4531 7.04947 14.2552C7.24914 14.0573 7.49653 13.9583 7.79166 13.9583H14.4583V7.29166C14.4583 6.99653 14.5585 6.74914 14.7589 6.54947C14.9592 6.34982 15.2075 6.25 15.5037 6.25C15.7998 6.25 16.0469 6.34982 16.2448 6.54947C16.4427 6.74914 16.5417 6.99653 16.5417 7.29166V13.9583H23.2083C23.5035 13.9583 23.7509 14.0585 23.9505 14.2589C24.1502 14.4592 24.25 14.7075 24.25 15.0037C24.25 15.2998 24.1502 15.5469 23.9505 15.7448C23.7509 15.9427 23.5035 16.0417 23.2083 16.0417H16.5417V22.7083C16.5417 23.0035 16.4415 23.2509 16.2411 23.4505C16.0408 23.6502 15.7925 23.75 15.4963 23.75C15.2002 23.75 14.9531 23.6502 14.7552 23.4505C14.5573 23.2509 14.4583 23.0035 14.4583 22.7083V16.0417Z" fill="white"/>
</g>
</svg>
