<svg width="40" height="40" viewBox="0 0 40 40" fill="none" xmlns="http://www.w3.org/2000/svg">
<mask id="mask0_165_524" style="mask-type:alpha" maskUnits="userSpaceOnUse" x="0" y="0" width="40" height="40">
<rect width="40" height="40" fill="#D9D9D9"/>
</mask>
<g mask="url(#mask0_165_524)">
<path d="M20 25.5447C19.7625 25.5447 19.531 25.4976 19.3056 25.4034C19.0801 25.3092 18.875 25.1697 18.6902 24.9849L10.6582 16.9529C10.3007 16.5954 10.1266 16.162 10.1358 15.6528C10.1451 15.1435 10.3285 14.7101 10.686 14.3527C11.0435 13.9952 11.4768 13.8164 11.9861 13.8164C12.4954 13.8164 12.9288 13.9952 13.2863 14.3527L20 21.0942L26.7416 14.3527C27.0991 13.9952 27.5278 13.821 28.0278 13.8303C28.5278 13.8396 28.9566 14.0229 29.3141 14.3804C29.6715 14.7379 29.8503 15.1713 29.8503 15.6805C29.8503 16.1898 29.6715 16.6232 29.3141 16.9807L21.3098 24.9849C21.125 25.1697 20.9199 25.3092 20.6945 25.4034C20.469 25.4976 20.2375 25.5447 20 25.5447Z" fill="white"/>
</g>
</svg>
