<svg width="40" height="40" viewBox="0 0 40 40" fill="none" xmlns="http://www.w3.org/2000/svg">
<mask id="mask0_165_521" style="mask-type:alpha" maskUnits="userSpaceOnUse" x="0" y="0" width="40" height="40">
<rect width="40" height="40" fill="#D9D9D9"/>
</mask>
<g mask="url(#mask0_165_521)">
<path d="M20 17.9058L13.2585 24.6473C12.901 25.0048 12.4722 25.179 11.9722 25.1697C11.4722 25.1604 11.0435 24.9771 10.686 24.6196C10.3285 24.2621 10.1498 23.8287 10.1498 23.3195C10.1498 22.8102 10.3285 22.3768 10.686 22.0193L18.6902 14.0151C19.057 13.6483 19.4936 13.465 20 13.465C20.5065 13.465 20.9431 13.6483 21.3098 14.0151L29.3418 22.0471C29.6993 22.4046 29.8781 22.8333 29.8781 23.3333C29.8781 23.8333 29.6993 24.2621 29.3418 24.6196C28.9844 24.9771 28.551 25.1558 28.0417 25.1558C27.5324 25.1558 27.0991 24.9771 26.7416 24.6196L20 17.9058Z" fill="white"/>
</g>
</svg>
