<svg width="40" height="40" viewBox="0 0 40 40" fill="none" xmlns="http://www.w3.org/2000/svg">
<mask id="mask0_689_9082" style="mask-type:alpha" maskUnits="userSpaceOnUse" x="0" y="0" width="40" height="40">
<rect width="40" height="40" fill="#D9D9D9"/>
</mask>
<g mask="url(#mask0_689_9082)">
<path d="M20.0002 17.9057L13.2586 24.6472C12.9011 25.0047 12.4724 25.1788 11.9724 25.1696C11.4724 25.1603 11.0436 24.9769 10.6861 24.6195C10.3286 24.262 10.1499 23.8286 10.1499 23.3193C10.1499 22.8101 10.3286 22.3767 10.6861 22.0192L18.6904 14.015C19.0571 13.6482 19.4937 13.4648 20.0002 13.4648C20.5066 13.4648 20.9432 13.6482 21.3099 14.015L29.3419 22.047C29.6994 22.4045 29.8782 22.8332 29.8782 23.3332C29.8782 23.8332 29.6994 24.262 29.3419 24.6195C28.9845 24.9769 28.5511 25.1557 28.0418 25.1557C27.5326 25.1557 27.0992 24.9769 26.7417 24.6195L20.0002 17.9057Z" fill="#E8DFEE"/>
</g>
</svg>
