<svg width="40" height="40" viewBox="0 0 40 40" fill="none" xmlns="http://www.w3.org/2000/svg">
<mask id="mask0_1_42" style="mask-type:alpha" maskUnits="userSpaceOnUse" x="0" y="0" width="40" height="40">
<rect width="40" height="40" fill="#D9D9D9"/>
</mask>
<g mask="url(#mask0_1_42)">
<path d="M13.3333 23.3333C13.125 23.3333 12.9572 23.2626 12.8299 23.1212C12.7026 22.9798 12.6389 22.8148 12.6389 22.6263C12.6389 22.5791 12.713 22.4167 12.8611 22.1389L19.2639 15.7639C19.3657 15.662 19.4774 15.5833 19.599 15.5278C19.7205 15.4722 19.8542 15.4445 20 15.4445C20.1458 15.4445 20.2795 15.4722 20.4011 15.5278C20.5226 15.5833 20.6343 15.662 20.7361 15.7639L27.1389 22.1389C27.2037 22.2037 27.257 22.2779 27.2986 22.3615C27.3403 22.4451 27.3611 22.5346 27.3611 22.6301C27.3611 22.8212 27.2975 22.9861 27.1701 23.125C27.0428 23.2639 26.875 23.3333 26.6667 23.3333H13.3333Z" fill="#E7E0E8"/>
</g>
</svg>
