<svg width="40" height="40" viewBox="0 0 40 40" fill="none" xmlns="http://www.w3.org/2000/svg">
<mask id="mask0_689_9085" style="mask-type:alpha" maskUnits="userSpaceOnUse" x="0" y="0" width="40" height="40">
<rect width="40" height="40" fill="#D9D9D9"/>
</mask>
<g mask="url(#mask0_689_9085)">
<path d="M19.9998 25.5447C19.7622 25.5447 19.5308 25.4976 19.3053 25.4034C19.0799 25.3092 18.8748 25.1697 18.69 24.9849L10.658 16.9529C10.3005 16.5954 10.1264 16.162 10.1356 15.6528C10.1449 15.1435 10.3283 14.7101 10.6857 14.3527C11.0432 13.9952 11.4766 13.8164 11.9859 13.8164C12.4951 13.8164 12.9285 13.9952 13.286 14.3527L19.9998 21.0942L26.7413 14.3527C27.0988 13.9952 27.5276 13.821 28.0276 13.8303C28.5276 13.8396 28.9563 14.0229 29.3138 14.3804C29.6713 14.7379 29.85 15.1713 29.85 15.6805C29.85 16.1898 29.6713 16.6232 29.3138 16.9807L21.3096 24.9849C21.1248 25.1697 20.9197 25.3092 20.6942 25.4034C20.4688 25.4976 20.2373 25.5447 19.9998 25.5447Z" fill="#E8DFEE"/>
</g>
</svg>
