<svg width="40" height="40" viewBox="0 0 40 40" fill="none" xmlns="http://www.w3.org/2000/svg">
<mask id="mask0_1_36" style="mask-type:alpha" maskUnits="userSpaceOnUse" x="0" y="0" width="40" height="40">
<rect width="40" height="40" fill="#D9D9D9"/>
</mask>
<g mask="url(#mask0_1_36)">
<path d="M19.2639 24.2639L12.8611 17.8889C12.7963 17.8241 12.7431 17.7499 12.7014 17.6663C12.6597 17.5827 12.6389 17.4932 12.6389 17.3977C12.6389 17.2066 12.7026 17.0417 12.8299 16.9028C12.9572 16.7639 13.125 16.6945 13.3333 16.6945H26.6667C26.875 16.6945 27.0428 16.7652 27.1701 16.9066C27.2975 17.048 27.3611 17.2129 27.3611 17.4015C27.3611 17.4486 27.2871 17.6111 27.1389 17.8889L20.7361 24.2639C20.6343 24.3657 20.5226 24.4444 20.4011 24.5C20.2795 24.5556 20.1458 24.5833 20 24.5833C19.8542 24.5833 19.7205 24.5556 19.599 24.5C19.4774 24.4444 19.3657 24.3657 19.2639 24.2639Z" fill="#E7E0E8"/>
</g>
</svg>
