<svg width="30" height="30" viewBox="0 0 30 30" fill="none" xmlns="http://www.w3.org/2000/svg">
<mask id="mask0_481_6195" style="mask-type:alpha" maskUnits="userSpaceOnUse" x="0" y="0" width="30" height="30">
<rect width="30" height="30" fill="#D9D9D9"/>
</mask>
<g mask="url(#mask0_481_6195)">
<path d="M20.625 9.77081C20.5208 9.77081 20.4306 9.7604 20.3542 9.73956C20.2778 9.71873 20.1944 9.68401 20.1042 9.63541L19.1979 9.11459C18.8507 8.90624 18.4774 8.85589 18.0781 8.96353C17.6788 9.07118 17.3819 9.29861 17.1875 9.64584L17.0521 9.89584L18.7396 10.8646C19.1076 11.0868 19.3489 11.4028 19.4635 11.8125C19.5781 12.2222 19.5243 12.6111 19.3021 12.9792L18.3125 14.75C18.7917 15.5 19.151 16.2969 19.3906 17.1406C19.6302 17.9844 19.75 18.8542 19.75 19.75C19.75 22.3542 18.8385 24.5677 17.0156 26.3906C15.1927 28.2135 12.9792 29.125 10.375 29.125C7.77083 29.125 5.55729 28.2031 3.73438 26.3594C1.91146 24.5156 1 22.2917 1 19.6875C1 17.0833 1.90451 14.8802 3.71353 13.0781C5.52257 11.276 7.72918 10.375 10.3333 10.375H10.7188L11.7083 8.63541C11.9167 8.24653 12.2292 7.99827 12.6458 7.89062C13.0625 7.78298 13.4653 7.8368 13.8542 8.05209L15.25 8.85416L15.4063 8.60416C15.8854 7.76389 16.5972 7.21875 17.5417 6.96875C18.4861 6.71875 19.3854 6.83333 20.2396 7.3125L21.1354 7.82291C21.2951 7.9132 21.4236 8.03994 21.5208 8.20313C21.618 8.36631 21.6667 8.54166 21.6667 8.72916C21.6667 9.02778 21.5677 9.27604 21.3698 9.47394C21.1719 9.67185 20.9236 9.77081 20.625 9.77081ZM24.9792 10.375C24.9792 10.0764 25.0781 9.82814 25.2761 9.63022C25.474 9.4323 25.7222 9.33334 26.0208 9.33334H27.2708C27.5694 9.33334 27.8177 9.4323 28.0156 9.63022C28.2135 9.82814 28.3125 10.0764 28.3125 10.375C28.3125 10.6736 28.2135 10.9219 28.0156 11.1198C27.8177 11.3177 27.5694 11.4167 27.2708 11.4167H26.0208C25.7222 11.4167 25.474 11.3177 25.2761 11.1198C25.0781 10.9219 24.9792 10.6736 24.9792 10.375ZM18.9375 4.33331C18.6389 4.33331 18.3906 4.23435 18.1927 4.03644C17.9948 3.83852 17.8958 3.59026 17.8958 3.29166V2.04166C17.8958 1.74305 17.9948 1.49479 18.1927 1.29688C18.3906 1.09896 18.6389 1 18.9375 1C19.2361 1 19.4844 1.09896 19.6823 1.29688C19.8802 1.49479 19.9792 1.74305 19.9792 2.04166V3.29166C19.9792 3.59026 19.8802 3.83852 19.6823 4.03644C19.4844 4.23435 19.2361 4.33331 18.9375 4.33331ZM23.2604 6.05206C23.059 5.85069 22.9583 5.60764 22.9583 5.32291C22.9583 5.0382 23.059 4.79515 23.2604 4.59375L24.1667 3.6875C24.3681 3.4861 24.6111 3.38541 24.8958 3.38541C25.1806 3.38541 25.4236 3.4861 25.625 3.6875C25.8264 3.8889 25.9271 4.13195 25.9271 4.41666C25.9271 4.70139 25.8264 4.94444 25.625 5.14581L24.7188 6.05206C24.5174 6.25346 24.2743 6.35416 23.9896 6.35416C23.7049 6.35416 23.4618 6.25346 23.2604 6.05206Z" fill="black"/>
</g>
</svg>
