<svg width="30" height="30" viewBox="0 0 30 30" fill="none" xmlns="http://www.w3.org/2000/svg">
<mask id="mask0_252_2850" style="mask-type:alpha" maskUnits="userSpaceOnUse" x="0" y="0" width="30" height="30">
<rect width="30" height="30" fill="#D9D9D9"/>
</mask>
<g mask="url(#mask0_252_2850)">
<path d="M15.0001 16.4583L8.5834 22.875C8.38203 23.0764 8.13898 23.1771 7.85425 23.1771C7.56954 23.1771 7.32649 23.0764 7.12509 22.875C6.9237 22.6736 6.823 22.4306 6.823 22.1458C6.823 21.8611 6.9237 21.6181 7.12509 21.4167L13.5418 15L7.12509 8.58331C6.9237 8.38194 6.823 8.13889 6.823 7.85416C6.823 7.56945 6.9237 7.3264 7.12509 7.125C7.32649 6.9236 7.56954 6.82291 7.85425 6.82291C8.13898 6.82291 8.38203 6.9236 8.5834 7.125L15.0001 13.5417L21.4168 7.125C21.6182 6.9236 21.8612 6.82291 22.1459 6.82291C22.4306 6.82291 22.6737 6.9236 22.8751 7.125C23.0765 7.3264 23.1772 7.56945 23.1772 7.85416C23.1772 8.13889 23.0765 8.38194 22.8751 8.58331L16.4584 15L22.8751 21.4167C23.0765 21.6181 23.1772 21.8611 23.1772 22.1458C23.1772 22.4306 23.0765 22.6736 22.8751 22.875C22.6737 23.0764 22.4306 23.1771 22.1459 23.1771C21.8612 23.1771 21.6182 23.0764 21.4168 22.875L15.0001 16.4583Z" fill="white"/>
</g>
</svg>
