<svg width="30" height="30" viewBox="0 0 30 30" fill="none" xmlns="http://www.w3.org/2000/svg">
<mask id="mask0_252_2784" style="mask-type:alpha" maskUnits="userSpaceOnUse" x="0" y="0" width="30" height="30">
<rect width="30" height="30" fill="#D9D9D9"/>
</mask>
<g mask="url(#mask0_252_2784)">
<path d="M15.0001 16.4584L8.5834 22.8751C8.38203 23.0765 8.13898 23.1772 7.85425 23.1772C7.56954 23.1772 7.32649 23.0765 7.12509 22.8751C6.9237 22.6737 6.823 22.4306 6.823 22.1459C6.823 21.8612 6.9237 21.6182 7.12509 21.4168L13.5418 15.0001L7.12509 8.5834C6.9237 8.38203 6.823 8.13898 6.823 7.85425C6.823 7.56954 6.9237 7.32649 7.12509 7.12509C7.32649 6.9237 7.56954 6.823 7.85425 6.823C8.13898 6.823 8.38203 6.9237 8.5834 7.12509L15.0001 13.5418L21.4168 7.12509C21.6182 6.9237 21.8612 6.823 22.1459 6.823C22.4306 6.823 22.6737 6.9237 22.8751 7.12509C23.0765 7.32649 23.1772 7.56954 23.1772 7.85425C23.1772 8.13898 23.0765 8.38203 22.8751 8.5834L16.4584 15.0001L22.8751 21.4168C23.0765 21.6182 23.1772 21.8612 23.1772 22.1459C23.1772 22.4306 23.0765 22.6737 22.8751 22.8751C22.6737 23.0765 22.4306 23.1772 22.1459 23.1772C21.8612 23.1772 21.6182 23.0765 21.4168 22.8751L15.0001 16.4584Z" fill="black"/>
</g>
</svg>
