<svg width="30" height="30" viewBox="0 0 30 30" fill="none" xmlns="http://www.w3.org/2000/svg">
<mask id="mask0_252_2784" style="mask-type:alpha" maskUnits="userSpaceOnUse" x="0" y="0" width="30" height="30">
<rect width="30" height="30" fill="#1E1A24"/>
</mask>
<g mask="url(#mask0_252_2784)">
<path d="M15.0001 16.4583L8.5834 22.875C8.38203 23.0764 8.13898 23.1771 7.85425 23.1771C7.56954 23.1771 7.32649 23.0764 7.12509 22.875C6.9237 22.6736 6.823 22.4305 6.823 22.1458C6.823 21.8611 6.9237 21.618 7.12509 21.4167L13.5418 15L7.12509 8.58328C6.9237 8.38191 6.823 8.13886 6.823 7.85413C6.823 7.56942 6.9237 7.32637 7.12509 7.12497C7.32649 6.92357 7.56954 6.82288 7.85425 6.82288C8.13898 6.82288 8.38203 6.92357 8.5834 7.12497L15.0001 13.5417L21.4168 7.12497C21.6182 6.92357 21.8612 6.82288 22.1459 6.82288C22.4306 6.82288 22.6737 6.92357 22.8751 7.12497C23.0765 7.32637 23.1772 7.56942 23.1772 7.85413C23.1772 8.13886 23.0765 8.38191 22.8751 8.58328L16.4584 15L22.8751 21.4167C23.0765 21.618 23.1772 21.8611 23.1772 22.1458C23.1772 22.4305 23.0765 22.6736 22.8751 22.875C22.6737 23.0764 22.4306 23.1771 22.1459 23.1771C21.8612 23.1771 21.6182 23.0764 21.4168 22.875L15.0001 16.4583Z" fill="#1E1A24"/>
</g>
</svg>
