<svg width="30" height="30" viewBox="0 0 30 30" fill="none" xmlns="http://www.w3.org/2000/svg">
<mask id="mask0_920_4135" style="mask-type:alpha" maskUnits="userSpaceOnUse" x="0" y="0" width="30" height="30">
<rect width="30" height="30" fill="#D9D9D9"/>
</mask>
<g mask="url(#mask0_920_4135)">
<path d="M8.95834 25.2083V22.2917H7.29166C6.99653 22.2917 6.74914 22.1915 6.54947 21.9911C6.34982 21.7908 6.25 21.5425 6.25 21.2463C6.25 20.9502 6.34982 20.7031 6.54947 20.5052C6.74914 20.3073 6.99653 20.2083 7.29166 20.2083H8.95834V17.0833H7.29166C6.99653 17.0833 6.74914 16.9831 6.54947 16.7828C6.34982 16.5824 6.25 16.3342 6.25 16.038C6.25 15.7418 6.34982 15.4948 6.54947 15.2969C6.74914 15.099 6.99653 15 7.29166 15H8.95834V4.79166C8.95834 4.49653 9.05817 4.24914 9.25781 4.04947C9.45746 3.84982 9.70485 3.75 10 3.75H17.0833C18.9419 3.75 20.5177 4.39672 21.8106 5.69016C23.1035 6.98362 23.75 8.56001 23.75 10.4193C23.75 12.2787 23.1035 13.8541 21.8106 15.1458C20.5177 16.4375 18.9419 17.0833 17.0833 17.0833H11.0417V20.2083H15.2083C15.5035 20.2083 15.7509 20.3085 15.9505 20.5089C16.1502 20.7092 16.25 20.9575 16.25 21.2537C16.25 21.5498 16.1502 21.7969 15.9505 21.9948C15.7509 22.1927 15.5035 22.2917 15.2083 22.2917H11.0417V25.2083C11.0417 25.5035 10.9415 25.7509 10.7411 25.9505C10.5408 26.1502 10.2925 26.25 9.99634 26.25C9.70018 26.25 9.45314 26.1502 9.25522 25.9505C9.0573 25.7509 8.95834 25.5035 8.95834 25.2083ZM11.0417 15H17.0833C18.3611 15 19.4444 14.5556 20.3333 13.6667C21.2222 12.7778 21.6667 11.6944 21.6667 10.4167C21.6667 9.13889 21.2222 8.05555 20.3333 7.16666C19.4444 6.27776 18.3611 5.83331 17.0833 5.83331H11.0417V15Z" fill="white"/>
</g>
</svg>
