<svg width="30" height="30" viewBox="0 0 30 30" fill="none" xmlns="http://www.w3.org/2000/svg">
<mask id="mask0_843_33015" style="mask-type:alpha" maskUnits="userSpaceOnUse" x="0" y="0" width="30" height="30">
<rect width="30" height="30" fill="#D9D9D9"/>
</mask>
<g mask="url(#mask0_843_33015)">
<path d="M4.58331 15.0104C4.58331 17.059 5.12671 18.9271 6.21352 20.6146C7.30034 22.3021 8.76389 23.5764 10.6042 24.4375C10.8681 24.5695 11.0573 24.7691 11.1719 25.0365C11.2865 25.3038 11.2743 25.5625 11.1354 25.8125C10.9688 26.0833 10.7379 26.2587 10.4427 26.3386C10.1476 26.4184 9.85071 26.3889 9.55209 26.25C7.37848 25.2084 5.65973 23.6771 4.39584 21.6563C3.13194 19.6354 2.49999 17.4201 2.49999 15.0104C2.49999 14.3854 2.54687 13.7604 2.64062 13.1354C2.73437 12.5104 2.87847 11.8958 3.07293 11.2917L2.10415 11.8542C1.85415 12 1.59373 12.0399 1.3229 11.9739C1.05207 11.908 0.847213 11.75 0.708338 11.5C0.569442 11.25 0.536452 10.9844 0.609369 10.7031C0.682285 10.4219 0.843744 10.2118 1.09374 10.0729L4.87499 7.88541C5.12499 7.74653 5.39062 7.71355 5.67187 7.78647C5.95312 7.85939 6.16318 8.02084 6.30206 8.27084L8.48956 12.0208C8.62845 12.2708 8.66144 12.5365 8.58853 12.8177C8.51561 13.0989 8.35415 13.309 8.10415 13.4479C7.85415 13.5868 7.58853 13.6198 7.30728 13.5469C7.02603 13.474 6.81596 13.3125 6.67709 13.0625L5.42706 10.9271C5.15622 11.5799 4.94789 12.2465 4.80206 12.9271C4.65622 13.6076 4.58331 14.3021 4.58331 15.0104ZM15 4.58331C13.9236 4.58331 12.8819 4.74477 11.875 5.06769C10.868 5.39063 9.92706 5.86459 9.05206 6.48959C8.7951 6.65626 8.52253 6.72744 8.23434 6.70313C7.94615 6.67883 7.73261 6.54169 7.59371 6.29169C7.434 6.0139 7.39234 5.72049 7.46871 5.41147C7.54511 5.10245 7.71524 4.86113 7.97912 4.68753C9.01385 3.97918 10.1267 3.4375 11.3177 3.0625C12.5087 2.6875 13.7361 2.5 15 2.5C16.7569 2.5 18.4288 2.84896 20.0156 3.54688C21.6024 4.24479 22.9896 5.23958 24.1771 6.53125V5.41666C24.1771 5.11805 24.276 4.86979 24.474 4.67188C24.6719 4.47396 24.9201 4.375 25.2187 4.375C25.5173 4.375 25.7656 4.47396 25.9635 4.67188C26.1614 4.86979 26.2604 5.11805 26.2604 5.41666V9.79166C26.2604 10.0903 26.1614 10.3385 25.9635 10.5364C25.7656 10.7344 25.5173 10.8333 25.2187 10.8333H20.8437C20.5451 10.8333 20.2969 10.7344 20.099 10.5364C19.901 10.3385 19.8021 10.0903 19.8021 9.79166C19.8021 9.49305 19.901 9.24479 20.099 9.04688C20.2969 8.84896 20.5451 8.75 20.8437 8.75H23.3333C22.3472 7.4375 21.125 6.41493 19.6667 5.68228C18.2083 4.94964 16.6528 4.58331 15 4.58331ZM22.7708 21.9688C23.7431 20.8715 24.4514 19.6389 24.8958 18.2708C25.3403 16.9028 25.4861 15.4965 25.3333 14.0521C25.3056 13.7534 25.3837 13.4895 25.5677 13.2604C25.7517 13.0312 25.9861 12.9167 26.2708 12.9167C26.5833 12.9167 26.849 13.0347 27.0677 13.2708C27.2865 13.5069 27.4097 13.7882 27.4375 14.1146C27.5486 15.691 27.3802 17.2205 26.9323 18.7031C26.4844 20.1858 25.7708 21.5451 24.7917 22.7813C23.9097 23.8924 22.8802 24.8229 21.7031 25.5729C20.526 26.3229 19.2465 26.8577 17.8646 27.1771L18.7604 27.6979C19.0104 27.8368 19.1667 28.0469 19.2292 28.3281C19.2917 28.6094 19.2535 28.875 19.1146 29.125C18.9757 29.375 18.7708 29.5312 18.5 29.5938C18.2292 29.6563 17.9687 29.6181 17.7187 29.4792L13.9062 27.2917C13.6562 27.1528 13.4948 26.9427 13.4219 26.6615C13.349 26.3802 13.3819 26.1146 13.5208 25.8646L15.7083 22.1042C15.8472 21.8542 16.0556 21.6945 16.3333 21.625C16.6111 21.5556 16.875 21.5903 17.125 21.7292C17.375 21.8681 17.533 22.0747 17.599 22.349C17.6649 22.6233 17.6285 22.8854 17.4896 23.1354L16.2083 25.375C17.4792 25.2361 18.6788 24.8733 19.8073 24.2865C20.9358 23.6997 21.9236 22.9271 22.7708 21.9688Z" fill="#E8DFEE"/>
</g>
</svg>
