<svg width="30" height="30" viewBox="0 0 30 30" fill="none" xmlns="http://www.w3.org/2000/svg">
<mask id="mask0_922_4219" style="mask-type:alpha" maskUnits="userSpaceOnUse" x="0" y="0" width="30" height="30">
<rect width="30" height="30" fill="#D9D9D9"/>
</mask>
<g mask="url(#mask0_922_4219)">
<path d="M9.37744 22.2917C9.84108 22.2917 10.2344 22.1294 10.5573 21.8048C10.8802 21.4803 11.0417 21.0862 11.0417 20.6226C11.0417 20.1589 10.8794 19.7656 10.5548 19.4427C10.2303 19.1198 9.83619 18.9583 9.37256 18.9583C8.90892 18.9583 8.51564 19.1206 8.19272 19.4452C7.8698 19.7697 7.70834 20.1638 7.70834 20.6274C7.70834 21.0911 7.87061 21.4844 8.19516 21.8073C8.51972 22.1302 8.91381 22.2917 9.37744 22.2917ZM9.37744 11.0417C9.84108 11.0417 10.2344 10.8794 10.5573 10.5548C10.8802 10.2303 11.0417 9.83619 11.0417 9.37256C11.0417 8.90892 10.8794 8.51564 10.5548 8.19272C10.2303 7.8698 9.83619 7.70834 9.37256 7.70834C8.90892 7.70834 8.51564 7.87061 8.19272 8.19516C7.8698 8.51972 7.70834 8.91381 7.70834 9.37744C7.70834 9.84108 7.87061 10.2344 8.19516 10.5573C8.51972 10.8802 8.91381 11.0417 9.37744 11.0417ZM15.0024 16.6667C15.4661 16.6667 15.8594 16.5044 16.1823 16.1798C16.5052 15.8553 16.6667 15.4612 16.6667 14.9976C16.6667 14.5339 16.5044 14.1406 16.1798 13.8177C15.8553 13.4948 15.4612 13.3333 14.9976 13.3333C14.5339 13.3333 14.1406 13.4956 13.8177 13.8202C13.4948 14.1447 13.3333 14.5388 13.3333 15.0024C13.3333 15.4661 13.4956 15.8594 13.8202 16.1823C14.1447 16.5052 14.5388 16.6667 15.0024 16.6667ZM20.6274 22.2917C21.0911 22.2917 21.4844 22.1294 21.8073 21.8048C22.1302 21.4803 22.2917 21.0862 22.2917 20.6226C22.2917 20.1589 22.1294 19.7656 21.8048 19.4427C21.4803 19.1198 21.0862 18.9583 20.6226 18.9583C20.1589 18.9583 19.7656 19.1206 19.4427 19.4452C19.1198 19.7697 18.9583 20.1638 18.9583 20.6274C18.9583 21.0911 19.1206 21.4844 19.4452 21.8073C19.7697 22.1302 20.1638 22.2917 20.6274 22.2917ZM20.6274 11.0417C21.0911 11.0417 21.4844 10.8794 21.8073 10.5548C22.1302 10.2303 22.2917 9.83619 22.2917 9.37256C22.2917 8.90892 22.1294 8.51564 21.8048 8.19272C21.4803 7.8698 21.0862 7.70834 20.6226 7.70834C20.1589 7.70834 19.7656 7.87061 19.4427 8.19516C19.1198 8.51972 18.9583 8.91381 18.9583 9.37744C18.9583 9.84108 19.1206 10.2344 19.4452 10.5573C19.7697 10.8802 20.1638 11.0417 20.6274 11.0417ZM5.83331 26.25C5.27081 26.25 4.78297 26.0434 4.36978 25.6302C3.95659 25.217 3.75 24.7292 3.75 24.1667V5.83331C3.75 5.27081 3.95659 4.78297 4.36978 4.36978C4.78297 3.95659 5.27081 3.75 5.83331 3.75H24.1667C24.7292 3.75 25.217 3.95659 25.6302 4.36978C26.0434 4.78297 26.25 5.27081 26.25 5.83331V24.1667C26.25 24.7292 26.0434 25.217 25.6302 25.6302C25.217 26.0434 24.7292 26.25 24.1667 26.25H5.83331Z" fill="#1E1A24"/>
</g>
</svg>
