<svg width="30" height="30" viewBox="0 0 30 30" fill="none" xmlns="http://www.w3.org/2000/svg">
<mask id="mask0_249_102" style="mask-type:alpha" maskUnits="userSpaceOnUse" x="0" y="0" width="30" height="30">
<rect width="30" height="30" fill="#D9D9D9"/>
</mask>
<g mask="url(#mask0_249_102)">
<path d="M20 17.4375C18.9444 17.4375 18.0625 17.0833 17.3542 16.375C16.6458 15.6667 16.2917 14.7847 16.2917 13.7292C16.2917 12.6736 16.6458 11.7917 17.3542 11.0833C18.0625 10.375 18.9444 10.0208 20 10.0208C21.0556 10.0208 21.9375 10.375 22.6458 11.0833C23.3542 11.7917 23.7083 12.6736 23.7083 13.7292C23.7083 14.7847 23.3542 15.6667 22.6458 16.375C21.9375 17.0833 21.0556 17.4375 20 17.4375ZM13.5417 25C13.2465 25 12.9991 24.9002 12.7995 24.7005C12.5998 24.5009 12.5 24.2535 12.5 23.9583V22.8333C12.5 22.4255 12.5972 22.0371 12.7917 21.6681C12.9861 21.2991 13.25 21.0278 13.5833 20.8542C14.5208 20.2222 15.5365 19.7517 16.6302 19.4427C17.724 19.1337 18.8472 18.9792 20 18.9792C21.1528 18.9792 22.2726 19.1441 23.3594 19.474C24.4462 19.8038 25.4653 20.2639 26.4167 20.8542C26.7361 21.0695 26.9965 21.3507 27.1979 21.6979C27.3993 22.0451 27.5 22.4236 27.5 22.8333V23.9583C27.5 24.2535 27.4002 24.5009 27.2005 24.7005C27.0009 24.9002 26.7535 25 26.4583 25H13.5417ZM12.4167 17.2917H4.79166C4.49653 17.2917 4.24914 17.1915 4.04947 16.9911C3.84982 16.7908 3.75 16.5425 3.75 16.2463C3.75 15.9502 3.84982 15.7031 4.04947 15.5052C4.24914 15.3073 4.49653 15.2083 4.79166 15.2083H12.4167C12.7118 15.2083 12.9592 15.3085 13.1588 15.5089C13.3585 15.7092 13.4583 15.9575 13.4583 16.2537C13.4583 16.5498 13.3585 16.7969 13.1588 16.9948C12.9592 17.1927 12.7118 17.2917 12.4167 17.2917ZM17.5625 7.08331H4.79166C4.49653 7.08331 4.24914 6.98314 4.04947 6.78278C3.84982 6.58243 3.75 6.33417 3.75 6.038C3.75 5.74183 3.84982 5.49479 4.04947 5.29687C4.24914 5.09896 4.49653 5 4.79166 5H17.5625C17.8576 5 18.105 5.10018 18.3047 5.30053C18.5043 5.50089 18.6042 5.74915 18.6042 6.04531C18.6042 6.34148 18.5043 6.58852 18.3047 6.78644C18.105 6.98435 17.8576 7.08331 17.5625 7.08331ZM14.3958 12.1875H4.79166C4.49653 12.1875 4.24914 12.0873 4.04947 11.887C3.84982 11.6866 3.75 11.4384 3.75 11.1422C3.75 10.846 3.84982 10.5989 4.04947 10.401C4.24914 10.2031 4.49653 10.1042 4.79166 10.1042H15.4167C15.1667 10.4028 14.9585 10.7251 14.7922 11.0713C14.6258 11.4174 14.4937 11.7895 14.3958 12.1875Z" fill="white"/>
</g>
</svg>
