<svg width="30" height="31" viewBox="0 0 30 31" fill="none" xmlns="http://www.w3.org/2000/svg">
<mask id="mask0_738_9596" style="mask-type:alpha" maskUnits="userSpaceOnUse" x="0" y="0" width="30" height="31">
<rect y="0.5" width="30" height="30" fill="#E8DFEE"/>
</mask>
<g mask="url(#mask0_738_9596)">
<path d="M4.79166 26.75C4.49305 26.75 4.24479 26.6511 4.04688 26.4532C3.84896 26.2552 3.75 26.007 3.75 25.7084V23.1771C3.75 22.8994 3.80555 22.6303 3.91666 22.3698C4.02778 22.1094 4.17709 21.8855 4.36459 21.698L21.2292 4.86462C21.4236 4.67712 21.6476 4.53129 21.9011 4.42712C22.1545 4.32296 22.4202 4.27087 22.6979 4.27087C22.9618 4.27087 23.2223 4.32296 23.4792 4.42712C23.7361 4.53129 23.9653 4.68059 24.1667 4.87503L25.6563 6.37503C25.8646 6.57641 26.0156 6.80557 26.1094 7.06253C26.2031 7.31947 26.25 7.57641 26.25 7.83334C26.25 8.09724 26.1997 8.3594 26.099 8.61981C25.9983 8.88021 25.8507 9.10764 25.6563 9.30209L8.80206 26.1354C8.61456 26.3229 8.3906 26.4722 8.13019 26.5834C7.86977 26.6945 7.60068 26.75 7.32291 26.75H4.79166ZM22.7292 9.22915L24.1458 7.8125L22.7083 6.37503L21.2917 7.79169L22.7292 9.22915Z" fill="#E8DFEE"/>
</g>
</svg>
