<svg width="30" height="30" viewBox="0 0 30 30" fill="none" xmlns="http://www.w3.org/2000/svg">
<mask id="mask0_158_2678" style="mask-type:alpha" maskUnits="userSpaceOnUse" x="1" y="1" width="28" height="28">
<rect x="1" y="1" width="28" height="28" fill="#D9D9D9"/>
</mask>
<g mask="url(#mask0_158_2678)">
<path d="M5.5 25C4.8125 25 4.22396 24.7552 3.73438 24.2656C3.24479 23.776 3 23.1875 3 22.5V7.5C3 6.8125 3.24479 6.22396 3.73438 5.73438C4.22396 5.24479 4.8125 5 5.5 5H25.5C26.1875 5 26.776 5.24479 27.2656 5.73438C27.7552 6.22396 28 6.8125 28 7.5V22.5C28 23.1875 27.7552 23.776 27.2656 24.2656C26.776 24.7552 26.1875 25 25.5 25H5.5ZM8 21.25H23C23.3542 21.25 23.651 21.1302 23.8906 20.8906C24.1302 20.651 24.25 20.3542 24.25 20C24.25 19.6458 24.1302 19.349 23.8906 19.1094C23.651 18.8698 23.3542 18.75 23 18.75H8C7.64583 18.75 7.34896 18.8698 7.10938 19.1094C6.86979 19.349 6.75 19.6458 6.75 20C6.75 20.3542 6.86979 20.651 7.10938 20.8906C7.34896 21.1302 7.64583 21.25 8 21.25ZM8 16.25H23C23.3542 16.25 23.651 16.1302 23.8906 15.8906C24.1302 15.651 24.25 15.3542 24.25 15C24.25 14.6458 24.1302 14.349 23.8906 14.1094C23.651 13.8698 23.3542 13.75 23 13.75H8C7.64583 13.75 7.34896 13.8698 7.10938 14.1094C6.86979 14.349 6.75 14.6458 6.75 15C6.75 15.3542 6.86979 15.651 7.10938 15.8906C7.34896 16.1302 7.64583 16.25 8 16.25ZM8 11.25H18C18.3542 11.25 18.651 11.1302 18.8906 10.8906C19.1302 10.651 19.25 10.3542 19.25 10C19.25 9.64583 19.1302 9.34896 18.8906 9.10938C18.651 8.86979 18.3542 8.75 18 8.75H8C7.64583 8.75 7.34896 8.86979 7.10938 9.10938C6.86979 9.34896 6.75 9.64583 6.75 10C6.75 10.3542 6.86979 10.651 7.10938 10.8906C7.34896 11.1302 7.64583 11.25 8 11.25Z" fill="#272727"/>
</g>
</svg>
