<svg width="60" height="60" viewBox="0 0 60 60" fill="none" xmlns="http://www.w3.org/2000/svg">
<mask id="mask0_481_7709" style="mask-type:alpha" maskUnits="userSpaceOnUse" x="0" y="0" width="60" height="60">
<rect width="60" height="60" fill="#D9D9D9"/>
</mask>
<g mask="url(#mask0_481_7709)">
<path d="M30.1262 44.7083C30.8615 44.7083 31.4826 44.4545 31.9896 43.9468C32.4965 43.439 32.75 42.8175 32.75 42.0822C32.75 41.3469 32.4961 40.7257 31.9884 40.2188C31.4807 39.7118 30.8591 39.4584 30.1238 39.4584C29.3885 39.4584 28.7674 39.7122 28.2604 40.2199C27.7535 40.7277 27.5 41.3492 27.5 42.0845C27.5 42.8198 27.7539 43.441 28.2616 43.9479C28.7693 44.4549 29.3909 44.7083 30.1262 44.7083ZM30.0111 55C26.5601 55 23.3171 54.3438 20.2819 53.0313C17.2468 51.7188 14.5972 49.9306 12.3333 47.6667C10.0694 45.4028 8.28125 42.7522 6.96875 39.715C5.65625 36.6778 5 33.4325 5 29.9792C5 26.5259 5.65625 23.2806 6.96875 20.2434C8.28125 17.2061 10.0694 14.5625 12.3333 12.3125C14.5972 10.0625 17.2478 8.28125 20.285 6.96875C23.3223 5.65625 26.5675 5 30.0208 5C33.4741 5 36.7194 5.65625 39.7566 6.96875C42.7939 8.28125 45.4375 10.0625 47.6875 12.3125C49.9375 14.5625 51.7188 17.2083 53.0313 20.25C54.3438 23.2917 55 26.538 55 29.9889C55 33.4399 54.3438 36.6829 53.0313 39.7181C51.7188 42.7532 49.9375 45.4002 47.6875 47.659C45.4375 49.9178 42.7917 51.7059 39.75 53.0236C36.7083 54.3412 33.462 55 30.0111 55ZM30.1986 18.9167C31.3857 18.9167 32.4271 19.2847 33.3229 20.0208C34.2188 20.7569 34.6667 21.6902 34.6667 22.8206C34.6667 23.8569 34.3556 24.7629 33.7334 25.5387C33.1113 26.3145 32.4085 27.0446 31.625 27.7292C30.6667 28.5347 29.8299 29.429 29.1146 30.4119C28.3993 31.3948 28.0417 32.5006 28.0417 33.7292C28.0417 34.2292 28.2313 34.6354 28.6104 34.9479C28.9896 35.2604 29.432 35.4167 29.9375 35.4167C30.4792 35.4167 30.9323 35.2361 31.2969 34.875C31.6615 34.5139 31.8958 34.0625 32 33.5208C32.1389 32.6458 32.4861 31.8576 33.0416 31.1563C33.5972 30.4549 34.2254 29.8086 34.9263 29.2174C35.9338 28.3503 36.7743 27.3611 37.4479 26.25C38.1215 25.1389 38.4583 23.922 38.4583 22.5994C38.4583 20.4915 37.6493 18.7465 36.0313 17.3646C34.4132 15.9826 32.5076 15.2917 30.3145 15.2917C28.7993 15.2917 27.3438 15.6111 25.9479 16.25C24.5521 16.8889 23.4375 17.8403 22.6042 19.1042C22.3125 19.5486 22.191 20.0243 22.2396 20.5313C22.2882 21.0382 22.5135 21.4375 22.9154 21.7292C23.4269 22.0625 23.9567 22.1667 24.5048 22.0417C25.0529 21.9167 25.5096 21.6042 25.875 21.1042C26.3819 20.3985 27.0156 19.8575 27.7761 19.4812C28.5365 19.1049 29.344 18.9167 30.1986 18.9167Z" fill="white"/>
</g>
</svg>
