<svg width="41" height="41" viewBox="0 0 41 41" fill="none" xmlns="http://www.w3.org/2000/svg">
<mask id="mask0_782_9624" style="mask-type:alpha" maskUnits="userSpaceOnUse" x="0" y="0" width="41" height="41">
<rect x="0.795654" y="0.754395" width="40" height="40" fill="#D9D9D9"/>
</mask>
<g mask="url(#mask0_782_9624)">
<path d="M20.8248 30.56C21.3569 30.56 21.8167 30.3659 22.2044 29.9777C22.5921 29.5895 22.7859 29.1256 22.7859 28.5861C22.7859 28.0465 22.5918 27.588 22.2037 27.2103C21.8155 26.8327 21.3527 26.6439 20.8154 26.6439C20.2781 26.6439 19.8182 26.8326 19.4357 27.2099C19.0532 27.5872 18.862 28.0491 18.862 28.5955C18.862 29.1298 19.0542 29.5908 19.4385 29.9785C19.8229 30.3661 20.2849 30.56 20.8248 30.56ZM20.8051 38.0806C18.3984 38.0806 16.1441 37.628 14.0424 36.7229C11.9406 35.8178 10.1056 34.5811 8.53727 33.0128C6.96894 31.4444 5.73223 29.6094 4.82715 27.5077C3.92204 25.406 3.46948 23.151 3.46948 20.7427C3.46948 18.3344 3.92204 16.0787 4.82715 13.9755C5.73223 11.8724 6.96812 10.041 8.53482 8.48139C10.1015 6.92178 11.9361 5.68707 14.0385 4.77726C16.141 3.86748 18.3968 3.4126 20.806 3.4126C23.2152 3.4126 25.472 3.86708 27.5764 4.77605C29.6807 5.68503 31.5124 6.91864 33.0712 8.47689C34.63 10.0351 35.8641 11.8675 36.7734 13.974C37.6828 16.0805 38.1374 18.3382 38.1374 20.7471C38.1374 23.1552 37.6826 25.4101 36.7728 27.5117C35.863 29.6133 34.6283 31.4459 33.0686 33.0096C31.509 34.5732 29.6769 35.8093 27.5722 36.7178C25.4676 37.6263 23.2119 38.0806 20.8051 38.0806ZM20.8735 13.7816C21.5589 13.7816 22.1612 13.9989 22.6804 14.4336C23.1996 14.8683 23.4592 15.4149 23.4592 16.0734C23.4592 16.6972 23.2741 17.2486 22.9038 17.7276C22.5335 18.2066 22.1134 18.6429 21.6434 19.0364C21.0046 19.5839 20.4427 20.1916 19.958 20.8593C19.4733 21.5271 19.231 22.2685 19.231 23.0836C19.231 23.4613 19.3755 23.7694 19.6646 24.0078C19.9536 24.2463 20.2908 24.3656 20.6762 24.3656C21.0891 24.3656 21.4381 24.2282 21.723 23.9534C22.0079 23.6786 22.2113 23.3424 22.3331 22.9446C22.4466 22.4136 22.6661 21.9364 22.9914 21.513C23.3169 21.0896 23.6953 20.6994 24.1269 20.3426C24.7881 19.7802 25.3327 19.1189 25.7609 18.3586C26.189 17.5983 26.4031 16.7877 26.4031 15.9266C26.4031 14.4978 25.8729 13.3032 24.8125 12.3426C23.7521 11.382 22.5005 10.9018 21.0577 10.9018C19.9872 10.9018 18.976 11.1278 18.0241 11.5799C17.0723 12.032 16.2924 12.6951 15.6845 13.5691C15.4691 13.902 15.3824 14.2633 15.4243 14.6532C15.4662 15.043 15.6482 15.3513 15.9705 15.5781C16.3586 15.8265 16.7654 15.9025 17.191 15.8061C17.6166 15.7096 17.9721 15.4791 18.2576 15.1143C18.5641 14.7067 18.9472 14.3827 19.4069 14.1423C19.8665 13.9018 20.3553 13.7816 20.8735 13.7816Z" fill="#E8DFEE"/>
</g>
</svg>
