<svg width="40" height="41" viewBox="0 0 40 41" fill="none" xmlns="http://www.w3.org/2000/svg">
<mask id="mask0_951_5345" style="mask-type:alpha" maskUnits="userSpaceOnUse" x="0" y="0" width="41" height="41">
<rect x="0.00012207" y="0.825073" width="40" height="40" fill="#D9D9D9"/>
</mask>
<g mask="url(#mask0_951_5345)">
<path d="M3.3335 31.2695V29.8806C3.3335 28.9177 3.57887 28.0403 4.06962 27.2487C4.56034 26.457 5.2409 25.8621 6.11129 25.464C7.73165 24.6954 9.396 24.0797 11.1043 23.6167C12.8127 23.1538 14.565 22.9223 16.3613 22.9223C16.6761 22.9223 16.9261 23.0542 17.1113 23.3181C17.2965 23.582 17.3381 23.8713 17.2363 24.1862C17.0696 24.8065 16.9539 25.4269 16.889 26.0473C16.8242 26.6677 16.7918 27.2927 16.7918 27.9223C16.7918 28.7093 16.852 29.4778 16.9724 30.2278C17.0928 30.9778 17.2872 31.714 17.5557 32.4362C17.7224 32.8158 17.7015 33.1792 17.4932 33.5264C17.2849 33.8737 16.9909 34.0473 16.6113 34.0473H6.11125C5.34275 34.0473 4.68766 33.7764 4.146 33.2348C3.60433 32.6931 3.3335 32.038 3.3335 31.2695ZM28.7224 30.7973C29.6946 30.7973 30.4932 30.4848 31.1182 29.8598C31.7432 29.2348 32.0557 28.4362 32.0557 27.4639C32.0557 26.4917 31.7432 25.6931 31.1182 25.0681C30.4932 24.4431 29.6946 24.1306 28.7224 24.1306C27.7502 24.1306 26.9516 24.4431 26.3266 25.0681C25.7016 25.6931 25.3891 26.4917 25.3891 27.4639C25.3891 28.4362 25.7016 29.2348 26.3266 29.8598C26.9516 30.4848 27.7502 30.7973 28.7224 30.7973ZM16.6668 20.6862C14.8335 20.6862 13.3103 20.0797 12.0974 18.8667C10.8844 17.6537 10.278 16.1306 10.278 14.2973C10.278 12.4639 10.8844 10.9408 12.0974 9.72784C13.3103 8.51487 14.8335 7.90839 16.6668 7.90839C18.5002 7.90839 20.0233 8.51487 21.2363 9.72784C22.4492 10.9408 23.0557 12.4639 23.0557 14.2973C23.0557 16.1306 22.4492 17.6537 21.2363 18.8667C20.0233 20.0797 18.5002 20.6862 16.6668 20.6862ZM27.2502 34.7417L26.9724 33.1584C26.5465 33.0195 26.1229 32.8366 25.7016 32.6098C25.2803 32.3829 24.9076 32.1213 24.5835 31.8251L23.1252 32.1723C22.8566 32.2463 22.5997 32.2325 22.3543 32.1306C22.109 32.0287 21.9168 31.8621 21.778 31.6306L21.5002 31.1584C21.3428 30.8991 21.2872 30.6306 21.3335 30.3528C21.3798 30.0751 21.5094 29.839 21.7224 29.6445L22.9446 28.5195C22.8891 28.2232 22.8613 27.8713 22.8613 27.4639C22.8613 27.0565 22.8891 26.7047 22.9446 26.4084L21.7224 25.2834C21.5094 25.1075 21.3798 24.8783 21.3335 24.5959C21.2872 24.3135 21.3428 24.0519 21.5002 23.8112L21.7918 23.2695C21.9307 23.038 22.1159 22.876 22.3474 22.7834C22.5789 22.6908 22.8289 22.6816 23.0974 22.7556L24.5835 23.1028C24.9076 22.8065 25.2803 22.545 25.7016 22.3181C26.1229 22.0913 26.5465 21.9084 26.9724 21.7695L27.2502 20.1723C27.315 19.8575 27.4608 19.6005 27.6877 19.4014C27.9145 19.2024 28.1854 19.1028 28.5002 19.1028H28.9446C29.2594 19.1028 29.5303 19.2047 29.7571 19.4084C29.984 19.6121 30.1298 19.8713 30.1946 20.1861L30.4724 21.7695C30.8983 21.9084 31.3219 22.0936 31.7432 22.3251C32.1645 22.5566 32.5372 22.8251 32.8613 23.1306L34.2919 22.7834C34.5696 22.7001 34.8335 22.7093 35.0835 22.8112C35.3335 22.913 35.5279 23.0843 35.6668 23.3251L35.9446 23.7973C36.102 24.0565 36.1576 24.3251 36.1113 24.6028C36.065 24.8806 35.9354 25.1167 35.7224 25.3111L34.5002 26.4362C34.5557 26.714 34.5835 27.0612 34.5835 27.4778C34.5835 27.8945 34.5557 28.2417 34.5002 28.5195L35.7224 29.6445C35.9354 29.8204 36.065 30.0496 36.1113 30.332C36.1576 30.6144 36.102 30.876 35.9446 31.1167L35.653 31.6584C35.5141 31.8899 35.3289 32.0519 35.0974 32.1445C34.8659 32.2371 34.6159 32.2463 34.3474 32.1723L32.8613 31.8251C32.5372 32.1213 32.1645 32.3829 31.7432 32.6098C31.3219 32.8366 30.8983 33.0195 30.4724 33.1584L30.1946 34.7556C30.1298 35.0704 29.984 35.3274 29.7571 35.5264C29.5303 35.7255 29.2594 35.8251 28.9446 35.8251H28.5002C28.1854 35.8251 27.9145 35.7232 27.6877 35.5195C27.4608 35.3158 27.315 35.0565 27.2502 34.7417Z" fill="#E8DFEE"/>
</g>
</svg>
