<svg width="30" height="30" viewBox="0 0 30 30" fill="none" xmlns="http://www.w3.org/2000/svg">
<mask id="mask0_224_3229" style="mask-type:alpha" maskUnits="userSpaceOnUse" x="0" y="0" width="30" height="30">
<rect width="30" height="30" fill="#D9D9D9"/>
</mask>
<g mask="url(#mask0_224_3229)">
<path d="M4.79166 19.7917C4.49653 19.7917 4.24914 19.6915 4.04947 19.4911C3.84982 19.2908 3.75 19.0425 3.75 18.7463C3.75 18.4502 3.84982 18.2031 4.04947 18.0052C4.24914 17.8073 4.49653 17.7083 4.79166 17.7083H11.875C12.1702 17.7083 12.4175 17.8085 12.6172 18.0089C12.8169 18.2092 12.9167 18.4575 12.9167 18.7537C12.9167 19.0498 12.8169 19.2969 12.6172 19.4948C12.4175 19.6927 12.1702 19.7917 11.875 19.7917H4.79166ZM4.79166 14.6875C4.49653 14.6875 4.24914 14.5873 4.04947 14.387C3.84982 14.1866 3.75 13.9384 3.75 13.6422C3.75 13.346 3.84982 13.0989 4.04947 12.901C4.24914 12.7031 4.49653 12.6042 4.79166 12.6042H17.0833C17.3785 12.6042 17.6259 12.7043 17.8255 12.9047C18.0252 13.105 18.125 13.3533 18.125 13.6495C18.125 13.9457 18.0252 14.1927 17.8255 14.3906C17.6259 14.5885 17.3785 14.6875 17.0833 14.6875H4.79166ZM4.79166 9.58331C4.49653 9.58331 4.24914 9.48314 4.04947 9.28278C3.84982 9.08243 3.75 8.83417 3.75 8.538C3.75 8.24183 3.84982 7.99479 4.04947 7.79688C4.24914 7.59896 4.49653 7.5 4.79166 7.5H17.0833C17.3785 7.5 17.6259 7.60018 17.8255 7.80053C18.0252 8.00089 18.125 8.24915 18.125 8.54531C18.125 8.84148 18.0252 9.08852 17.8255 9.28644C17.6259 9.48435 17.3785 9.58331 17.0833 9.58331H4.79166ZM21.2463 25C20.9502 25 20.7031 24.9002 20.5052 24.7005C20.3073 24.5009 20.2083 24.2535 20.2083 23.9583V19.7917H16.0417C15.7465 19.7917 15.4991 19.6915 15.2995 19.4911C15.0998 19.2908 15 19.0425 15 18.7463C15 18.4502 15.0998 18.2031 15.2995 18.0052C15.4991 17.8073 15.7465 17.7083 16.0417 17.7083H20.2083V13.5417C20.2083 13.2465 20.3085 12.9991 20.5089 12.7995C20.7092 12.5998 20.9575 12.5 21.2537 12.5C21.5498 12.5 21.7969 12.5998 21.9948 12.7995C22.1927 12.9991 22.2917 13.2465 22.2917 13.5417V17.7083H26.4583C26.7535 17.7083 27.0009 17.8085 27.2005 18.0089C27.4002 18.2092 27.5 18.4575 27.5 18.7537C27.5 19.0498 27.4002 19.2969 27.2005 19.4948C27.0009 19.6927 26.7535 19.7917 26.4583 19.7917H22.2917V23.9583C22.2917 24.2535 22.1915 24.5009 21.9911 24.7005C21.7908 24.9002 21.5425 25 21.2463 25Z" fill="white"/>
</g>
</svg>
