<svg width="30" height="30" viewBox="0 0 30 30" fill="none" xmlns="http://www.w3.org/2000/svg">
<mask id="mask0_121_1147" style="mask-type:alpha" maskUnits="userSpaceOnUse" x="0" y="0" width="30" height="30">
<rect width="30" height="30" fill="#D9D9D9"/>
</mask>
<g mask="url(#mask0_121_1147)">
<path d="M4 27.75C3.71111 27.75 3.47222 27.6597 3.28333 27.4791C3.09444 27.2984 3 27.07 3 26.7937C3 26.5175 3.09444 26.2891 3.28333 26.1084C3.47222 25.9278 3.71111 25.8375 4 25.8375H6.33333V24.8813H5.33333C5.04444 24.8813 4.80556 24.7909 4.61667 24.6103C4.42778 24.4297 4.33333 24.2012 4.33333 23.925C4.33333 23.6487 4.42778 23.4203 4.61667 23.2397C4.80556 23.0591 5.04444 22.9687 5.33333 22.9687H6.33333V22.0125H4C3.71111 22.0125 3.47222 21.9222 3.28333 21.7416C3.09444 21.5609 3 21.3325 3 21.0563C3 20.78 3.09444 20.5516 3.28333 20.3709C3.47222 20.1903 3.71111 20.1 4 20.1H7C7.37778 20.1 7.69444 20.2222 7.95 20.4666C8.20556 20.7109 8.33333 21.0138 8.33333 21.375V22.65C8.33333 23.0113 8.20556 23.3141 7.95 23.5584C7.69444 23.8028 7.37778 23.925 7 23.925C7.37778 23.925 7.69444 24.0472 7.95 24.2916C8.20556 24.5359 8.33333 24.8388 8.33333 25.2V26.475C8.33333 26.8363 8.20556 27.1391 7.95 27.3834C7.69444 27.6278 7.37778 27.75 7 27.75H4ZM3.84443 18.825C3.61481 18.825 3.41667 18.7453 3.25 18.5859C3.08333 18.4266 3 18.2371 3 18.0175V15.3188C3 14.9575 3.12778 14.6547 3.38333 14.4103C3.63889 14.1659 3.95556 14.0438 4.33333 14.0438H6.33333V13.0875H4C3.71111 13.0875 3.47222 12.9972 3.28333 12.8166C3.09444 12.6359 3 12.4075 3 12.1313C3 11.855 3.09444 11.6266 3.28333 11.4459C3.47222 11.2653 3.71111 11.175 4 11.175H7C7.37778 11.175 7.69444 11.2972 7.95 11.5416C8.20556 11.7859 8.33333 12.0888 8.33333 12.45V14.6813C8.33333 15.0425 8.20556 15.3453 7.95 15.5897C7.69444 15.8341 7.37778 15.9562 7 15.9562H5V16.9125H7.33333C7.62222 16.9125 7.86111 17.0028 8.05 17.1834C8.23889 17.3641 8.33333 17.5925 8.33333 17.8688C8.33333 18.145 8.23889 18.3734 8.05 18.5541C7.86111 18.7347 7.62222 18.825 7.33333 18.825H3.84443ZM6 9.9C5.71111 9.9 5.47222 9.80969 5.28333 9.62906C5.09444 9.44844 5 9.22 5 8.94375V4.1625H4C3.71111 4.1625 3.47222 4.07219 3.28333 3.89156C3.09444 3.71094 3 3.4825 3 3.20625C3 2.93 3.09444 2.70156 3.28333 2.52094C3.47222 2.34031 3.71111 2.25 4 2.25H6.17777C6.40741 2.25 6.60186 2.32615 6.7611 2.47845C6.92037 2.63073 7 2.81666 7 3.03626V8.94375C7 9.22 6.90556 9.44844 6.71667 9.62906C6.52778 9.80969 6.28889 9.9 6 9.9ZM12.3111 23.7337C11.9963 23.7337 11.7324 23.6316 11.5194 23.4272C11.3065 23.2228 11.2 22.9696 11.2 22.6675C11.2 22.3654 11.3065 22.1134 11.5194 21.9116C11.7324 21.7097 11.9963 21.6088 12.3111 21.6088H25.8889C26.2037 21.6088 26.4676 21.7109 26.6806 21.9153C26.8935 22.1196 27 22.3729 27 22.675C27 22.9771 26.8935 23.2291 26.6806 23.4309C26.4676 23.6328 26.2037 23.7337 25.8889 23.7337H12.3111ZM12.3111 16.02C11.9963 16.02 11.7324 15.9178 11.5194 15.7135C11.3065 15.5091 11.2 15.2559 11.2 14.9538C11.2 14.6517 11.3065 14.3997 11.5194 14.1978C11.7324 13.9959 11.9963 13.895 12.3111 13.895H25.8889C26.2037 13.895 26.4676 13.9972 26.6806 14.2015C26.8935 14.4059 27 14.6591 27 14.9612C27 15.2633 26.8935 15.5153 26.6806 15.7172C26.4676 15.9191 26.2037 16.02 25.8889 16.02H12.3111ZM12.3111 8.30625C11.9963 8.30625 11.7324 8.20407 11.5194 7.99971C11.3065 7.79535 11.2 7.54212 11.2 7.24003C11.2 6.93792 11.3065 6.68593 11.5194 6.48405C11.7324 6.28218 11.9963 6.18124 12.3111 6.18124H25.8889C26.2037 6.18124 26.4676 6.28342 26.6806 6.48778C26.8935 6.69214 27 6.94538 27 7.24749C27 7.54958 26.8935 7.80156 26.6806 8.00344C26.4676 8.20531 26.2037 8.30625 25.8889 8.30625H12.3111Z" fill="#272727"/>
</g>
</svg>
