<svg width="30" height="30" viewBox="0 0 30 30" fill="none" xmlns="http://www.w3.org/2000/svg">
<mask id="mask0_973_3658" style="mask-type:alpha" maskUnits="userSpaceOnUse" x="0" y="0" width="30" height="30">
<rect width="30" height="30" fill="white"/>
</mask>
<g mask="url(#mask0_973_3658)">
<path d="M4 27.5C3.71111 27.5 3.47222 27.4097 3.28333 27.2291C3.09444 27.0484 3 26.82 3 26.5437C3 26.2675 3.09444 26.0391 3.28333 25.8584C3.47222 25.6778 3.71111 25.5875 4 25.5875H6.33333V24.6313H5.33333C5.04444 24.6313 4.80556 24.5409 4.61667 24.3603C4.42778 24.1797 4.33333 23.9512 4.33333 23.675C4.33333 23.3987 4.42778 23.1703 4.61667 22.9897C4.80556 22.8091 5.04444 22.7187 5.33333 22.7187H6.33333V21.7625H4C3.71111 21.7625 3.47222 21.6722 3.28333 21.4916C3.09444 21.3109 3 21.0825 3 20.8063C3 20.53 3.09444 20.3016 3.28333 20.1209C3.47222 19.9403 3.71111 19.85 4 19.85H7C7.37778 19.85 7.69444 19.9722 7.95 20.2166C8.20556 20.4609 8.33333 20.7638 8.33333 21.125V22.4C8.33333 22.7613 8.20556 23.0641 7.95 23.3084C7.69444 23.5528 7.37778 23.675 7 23.675C7.37778 23.675 7.69444 23.7972 7.95 24.0416C8.20556 24.2859 8.33333 24.5888 8.33333 24.95V26.225C8.33333 26.5863 8.20556 26.8891 7.95 27.1334C7.69444 27.3778 7.37778 27.5 7 27.5H4ZM3.84443 18.575C3.61481 18.575 3.41667 18.4953 3.25 18.3359C3.08333 18.1766 3 17.9871 3 17.7675V15.0688C3 14.7075 3.12778 14.4047 3.38333 14.1603C3.63889 13.9159 3.95556 13.7938 4.33333 13.7938H6.33333V12.8375H4C3.71111 12.8375 3.47222 12.7472 3.28333 12.5666C3.09444 12.3859 3 12.1575 3 11.8813C3 11.605 3.09444 11.3766 3.28333 11.1959C3.47222 11.0153 3.71111 10.925 4 10.925H7C7.37778 10.925 7.69444 11.0472 7.95 11.2916C8.20556 11.5359 8.33333 11.8388 8.33333 12.2V14.4313C8.33333 14.7925 8.20556 15.0953 7.95 15.3397C7.69444 15.5841 7.37778 15.7062 7 15.7062H5V16.6625H7.33333C7.62222 16.6625 7.86111 16.7528 8.05 16.9334C8.23889 17.1141 8.33333 17.3425 8.33333 17.6188C8.33333 17.895 8.23889 18.1234 8.05 18.3041C7.86111 18.4847 7.62222 18.575 7.33333 18.575H3.84443ZM6 9.65C5.71111 9.65 5.47222 9.55969 5.28333 9.37906C5.09444 9.19844 5 8.97 5 8.69375V3.9125H4C3.71111 3.9125 3.47222 3.82219 3.28333 3.64156C3.09444 3.46094 3 3.2325 3 2.95625C3 2.68 3.09444 2.45156 3.28333 2.27094C3.47222 2.09031 3.71111 2 4 2H6.17777C6.40741 2 6.60186 2.07615 6.7611 2.22845C6.92037 2.38073 7 2.56666 7 2.78626V8.69375C7 8.97 6.90556 9.19844 6.71667 9.37906C6.52778 9.55969 6.28889 9.65 6 9.65ZM12.3111 23.4837C11.9963 23.4837 11.7324 23.3816 11.5194 23.1772C11.3065 22.9728 11.2 22.7196 11.2 22.4175C11.2 22.1154 11.3065 21.8634 11.5194 21.6616C11.7324 21.4597 11.9963 21.3588 12.3111 21.3588H25.8889C26.2037 21.3588 26.4676 21.4609 26.6806 21.6653C26.8935 21.8696 27 22.1229 27 22.425C27 22.7271 26.8935 22.9791 26.6806 23.1809C26.4676 23.3828 26.2037 23.4837 25.8889 23.4837H12.3111ZM12.3111 15.77C11.9963 15.77 11.7324 15.6678 11.5194 15.4635C11.3065 15.2591 11.2 15.0059 11.2 14.7038C11.2 14.4017 11.3065 14.1497 11.5194 13.9478C11.7324 13.7459 11.9963 13.645 12.3111 13.645H25.8889C26.2037 13.645 26.4676 13.7472 26.6806 13.9515C26.8935 14.1559 27 14.4091 27 14.7112C27 15.0133 26.8935 15.2653 26.6806 15.4672C26.4676 15.6691 26.2037 15.77 25.8889 15.77H12.3111ZM12.3111 8.05625C11.9963 8.05625 11.7324 7.95407 11.5194 7.74971C11.3065 7.54535 11.2 7.29212 11.2 6.99003C11.2 6.68792 11.3065 6.43593 11.5194 6.23405C11.7324 6.03218 11.9963 5.93124 12.3111 5.93124H25.8889C26.2037 5.93124 26.4676 6.03342 26.6806 6.23778C26.8935 6.44214 27 6.69538 27 6.99749C27 7.29958 26.8935 7.55156 26.6806 7.75344C26.4676 7.95531 26.2037 8.05625 25.8889 8.05625H12.3111Z" fill="#E8DFEE"/>
</g>
</svg>
