<svg width="30" height="30" viewBox="0 0 30 30" fill="none" xmlns="http://www.w3.org/2000/svg">
<mask id="mask0_874_4065" style="mask-type:alpha" maskUnits="userSpaceOnUse" x="0" y="0" width="30" height="30">
<rect width="30" height="30" fill="#D9D9D9"/>
</mask>
<g mask="url(#mask0_874_4065)">
<path d="M21.3333 24.0417L18.625 26.7708C18.4236 26.9722 18.1806 27.0729 17.8958 27.0729C17.6111 27.0729 17.3681 26.9722 17.1667 26.7708C16.9653 26.5694 16.8646 26.3229 16.8646 26.0312C16.8646 25.7396 16.9653 25.4931 17.1667 25.2917L19.875 22.5833L17.1458 19.875C16.9444 19.6736 16.8438 19.4306 16.8438 19.1458C16.8438 18.8611 16.9444 18.6181 17.1458 18.4167C17.3472 18.2153 17.5937 18.1146 17.8854 18.1146C18.1771 18.1146 18.4236 18.2153 18.625 18.4167L21.3333 21.125L24.0417 18.3958C24.2431 18.1944 24.4861 18.0937 24.7708 18.0937C25.0556 18.0937 25.2986 18.1944 25.5 18.3958C25.7014 18.5972 25.8021 18.8437 25.8021 19.1354C25.8021 19.4271 25.7014 19.6736 25.5 19.875L22.7917 22.5833L25.5208 25.2917C25.7222 25.4931 25.8229 25.7361 25.8229 26.0208C25.8229 26.3056 25.7222 26.5486 25.5208 26.75C25.3194 26.9514 25.0729 27.0521 24.7813 27.0521C24.4896 27.0521 24.2431 26.9514 24.0417 26.75L21.3333 24.0417ZM4.79166 19.7917C4.49653 19.7917 4.24914 19.6915 4.04947 19.4911C3.84982 19.2908 3.75 19.0425 3.75 18.7463C3.75 18.4502 3.84982 18.2031 4.04947 18.0052C4.24914 17.8073 4.49653 17.7083 4.79166 17.7083H11.875C12.1702 17.7083 12.4175 17.8085 12.6172 18.0089C12.8169 18.2092 12.9167 18.4575 12.9167 18.7537C12.9167 19.0498 12.8169 19.2969 12.6172 19.4948C12.4175 19.6927 12.1702 19.7917 11.875 19.7917H4.79166ZM4.79166 14.6875C4.49653 14.6875 4.24914 14.5873 4.04947 14.387C3.84982 14.1866 3.75 13.9384 3.75 13.6422C3.75 13.346 3.84982 13.0989 4.04947 12.901C4.24914 12.7031 4.49653 12.6042 4.79166 12.6042H17.0833C17.3785 12.6042 17.6259 12.7043 17.8255 12.9047C18.0252 13.105 18.125 13.3533 18.125 13.6495C18.125 13.9457 18.0252 14.1927 17.8255 14.3906C17.6259 14.5885 17.3785 14.6875 17.0833 14.6875H4.79166ZM4.79166 9.58331C4.49653 9.58331 4.24914 9.48314 4.04947 9.28278C3.84982 9.08243 3.75 8.83417 3.75 8.538C3.75 8.24183 3.84982 7.99479 4.04947 7.79687C4.24914 7.59896 4.49653 7.5 4.79166 7.5H17.0833C17.3785 7.5 17.6259 7.60018 17.8255 7.80053C18.0252 8.00089 18.125 8.24915 18.125 8.54531C18.125 8.84148 18.0252 9.08852 17.8255 9.28644C17.6259 9.48435 17.3785 9.58331 17.0833 9.58331H4.79166Z" fill="#1E1A24"/>
</g>
</svg>
