<svg width="30" height="30" viewBox="0 0 30 30" fill="none" xmlns="http://www.w3.org/2000/svg">
<mask id="mask0_624_29381" style="mask-type:alpha" maskUnits="userSpaceOnUse" x="0" y="0" width="30" height="30">
<rect width="30" height="30" fill="#D9D9D9"/>
</mask>
<g mask="url(#mask0_624_29381)">
<path d="M14.9971 25C14.4921 25 14.0608 24.8202 13.7032 24.4606C13.3456 24.101 13.1667 23.6687 13.1667 23.1637C13.1667 22.6588 13.3465 22.2275 13.7062 21.8698C14.0658 21.5122 14.498 21.3334 15.003 21.3334C15.508 21.3334 15.9393 21.5132 16.2969 21.8728C16.6546 22.2324 16.8334 22.6647 16.8334 23.1696C16.8334 23.6746 16.6536 24.1059 16.294 24.4636C15.9344 24.8212 15.5021 25 14.9971 25ZM14.9971 16.8333C14.4921 16.8333 14.0608 16.6535 13.7032 16.2939C13.3456 15.9343 13.1667 15.502 13.1667 14.9971C13.1667 14.4921 13.3465 14.0608 13.7062 13.7031C14.0658 13.3455 14.498 13.1667 15.003 13.1667C15.508 13.1667 15.9393 13.3465 16.2969 13.7061C16.6546 14.0657 16.8334 14.498 16.8334 15.0029C16.8334 15.5079 16.6536 15.9392 16.294 16.2969C15.9344 16.6545 15.5021 16.8333 14.9971 16.8333ZM14.9971 8.66662C14.4921 8.66662 14.0608 8.48682 13.7032 8.12722C13.3456 7.76761 13.1667 7.33533 13.1667 6.83038C13.1667 6.3254 13.3465 5.89409 13.7062 5.53647C14.0658 5.17882 14.498 5 15.003 5C15.508 5 15.9393 5.1798 16.2969 5.53941C16.6546 5.89901 16.8334 6.33129 16.8334 6.83625C16.8334 7.34123 16.6536 7.77254 16.294 8.13019C15.9344 8.48781 15.5021 8.66662 14.9971 8.66662Z" fill="white"/>
</g>
</svg>
