<svg width="30" height="30" viewBox="0 0 30 30" fill="none" xmlns="http://www.w3.org/2000/svg">
<mask id="mask0_130_1728" style="mask-type:alpha" maskUnits="userSpaceOnUse" x="0" y="0" width="30" height="30">
<rect width="30" height="30" fill="#D9D9D9"/>
</mask>
<g mask="url(#mask0_130_1728)">
<path d="M19.3915 23.25C18.7137 23.25 18.1336 23.0185 17.6511 22.5554C17.1686 22.0923 16.9273 21.5355 16.9273 20.8852V9.11478C16.9273 8.46447 17.1687 7.90776 17.6513 7.44465C18.134 6.98155 18.7143 6.75 19.3921 6.75H20.4144C21.0922 6.75 21.6717 6.98155 22.153 7.44465C22.6343 7.90774 22.875 8.46445 22.875 9.11478V20.8852C22.875 21.5355 22.6343 22.0923 22.1528 22.5554C21.6713 23.0185 21.0916 23.25 20.4138 23.25H19.3915ZM9.58924 23.25C8.91143 23.25 8.33128 23.0185 7.84878 22.5554C7.36626 22.0923 7.125 21.5355 7.125 20.8852V9.11478C7.125 8.46447 7.36635 7.90776 7.84906 7.44465C8.33174 6.98155 8.91199 6.75 9.5898 6.75H10.6121C11.2899 6.75 11.8695 6.98155 12.3508 7.44465C12.832 7.90774 13.0727 8.46445 13.0727 9.11478V20.8852C13.0727 21.5355 12.832 22.0923 12.3505 22.5554C11.869 23.0185 11.2893 23.25 10.6115 23.25H9.58924Z" fill="white"/>
</g>
</svg>
