<svg width="40" height="40" viewBox="0 0 40 40" fill="none" xmlns="http://www.w3.org/2000/svg">
<mask id="mask0_689_9076" style="mask-type:alpha" maskUnits="userSpaceOnUse" x="0" y="0" width="40" height="40">
<rect width="40" height="40" fill="#E8DFEE"/>
</mask>
<g mask="url(#mask0_689_9076)">
<path d="M25.8554 31C24.9516 31 24.1781 30.6913 23.5347 30.0738C22.8914 29.4563 22.5697 28.7141 22.5697 27.847V12.153C22.5697 11.286 22.8915 10.5437 23.5351 9.92619C24.1787 9.30873 24.9524 9 25.8561 9H27.2192C28.1229 9 28.8957 9.30873 29.5374 9.92619C30.1791 10.5437 30.5 11.2859 30.5 12.153V27.847C30.5 28.7141 30.179 29.4563 29.537 30.0738C28.895 30.6913 28.1222 31 27.2184 31H25.8554ZM12.7857 31C11.8819 31 11.1084 30.6913 10.465 30.0738C9.82168 29.4563 9.5 28.7141 9.5 27.847V12.153C9.5 11.286 9.8218 10.5437 10.4654 9.92619C11.109 9.30873 11.8827 9 12.7864 9H14.1494C15.0532 9 15.8259 9.30873 16.4677 9.92619C17.1094 10.5437 17.4303 11.2859 17.4303 12.153V27.847C17.4303 28.7141 17.1093 29.4563 16.4673 30.0738C15.8253 30.6913 15.0525 31 14.1487 31H12.7857Z" fill="#E8DFEE"/>
</g>
</svg>
