<svg width="30" height="30" viewBox="0 0 30 30" fill="none" xmlns="http://www.w3.org/2000/svg">
<mask id="mask0_121_1145" style="mask-type:alpha" maskUnits="userSpaceOnUse" x="1" y="1" width="28" height="28">
<rect x="1" y="1" width="28" height="28" fill="#D9D9D9"/>
</mask>
<g mask="url(#mask0_121_1145)">
<path d="M16.3131 13.7016V2C19.4428 2.3287 22.0854 3.57775 24.2412 5.74716C26.3969 7.91656 27.6498 10.5681 28 13.7016H16.3131ZM13.7197 28C10.3931 27.6713 7.60817 26.2689 5.3649 23.7927C3.12163 21.3165 2 18.3911 2 15.0164C2 11.6199 3.12163 8.68352 5.3649 6.20733C7.60817 3.73114 10.3931 2.3287 13.7197 2V28ZM16.3131 28V16.2984H28C27.6936 19.4319 26.4516 22.0889 24.274 24.2693C22.0964 26.4496 19.4428 27.6932 16.3131 28Z" fill="#272727"/>
</g>
</svg>
