<svg width="30" height="30" viewBox="0 0 30 30" fill="none" xmlns="http://www.w3.org/2000/svg">
<mask id="mask0_481_6234" style="mask-type:alpha" maskUnits="userSpaceOnUse" x="0" y="0" width="30" height="30">
<rect width="30" height="30" fill="#D9D9D9"/>
</mask>
<g mask="url(#mask0_481_6234)">
<path d="M16.3355 13.5375V1C19.6887 1.35218 22.5201 2.69045 24.8298 5.01481C27.1395 7.33918 28.482 10.1801 28.8571 13.5375H16.3355ZM13.5568 28.8571C9.99261 28.505 7.00875 27.0024 4.60525 24.3493C2.20175 21.6962 1 18.5619 1 14.9462C1 11.307 2.20175 8.16092 4.60525 5.50786C7.00875 2.8548 9.99261 1.35218 13.5568 1V28.8571ZM16.3355 28.8571V16.3197H28.8571C28.5289 19.6771 27.1981 22.5238 24.865 24.8599C22.5318 27.196 19.6887 28.5284 16.3355 28.8571Z" fill="white"/>
</g>
</svg>
