<svg width="30" height="30" viewBox="0 0 30 30" fill="none" xmlns="http://www.w3.org/2000/svg">
<mask id="mask0_834_31548" style="mask-type:alpha" maskUnits="userSpaceOnUse" x="0" y="0" width="30" height="30">
<rect width="30" height="30" fill="#D9D9D9"/>
</mask>
<g mask="url(#mask0_834_31548)">
<path d="M18.5521 13.7292C18.3785 13.1875 18.092 12.7239 17.6927 12.3385C17.2934 11.9531 16.8229 11.6736 16.2813 11.5V2.5625C19.2604 2.85417 21.7934 4.04341 23.8802 6.13022C25.967 8.21701 27.1562 10.75 27.4479 13.7292H18.5521ZM13.7396 27.4375C10.5451 27.1389 7.87847 25.809 5.73959 23.4479C3.6007 21.0868 2.53125 18.2917 2.53125 15.0625C2.53125 11.8333 3.59722 9.02083 5.72916 6.625C7.86111 4.22917 10.5313 2.875 13.7396 2.5625V11.5C13.0035 11.7847 12.4097 12.2517 11.9583 12.901C11.5069 13.5503 11.2813 14.2708 11.2813 15.0625C11.2813 15.8264 11.5069 16.5156 11.9583 17.1302C12.4097 17.7448 13.0035 18.1875 13.7396 18.4583V27.4375ZM16.2813 27.4375V18.4583C16.8229 18.2847 17.2934 18.0121 17.6927 17.6406C18.092 17.2691 18.3785 16.8125 18.5521 16.2708H27.4479C27.1562 19.25 25.967 21.783 23.8802 23.8698C21.7934 25.9566 19.2604 27.1458 16.2813 27.4375Z" fill="#E8DFEE"/>
</g>
</svg>
