<svg width="31" height="30" viewBox="0 0 31 30" fill="none" xmlns="http://www.w3.org/2000/svg">
<mask id="mask0_224_3711" style="mask-type:alpha" maskUnits="userSpaceOnUse" x="0" y="0" width="31" height="30">
<rect x="0.5" width="30" height="30" fill="#D9D9D9"/>
</mask>
<g mask="url(#mask0_224_3711)">
<path d="M8.08331 15.5294C8.08331 15.8951 8.10762 16.2527 8.15625 16.6021C8.20485 16.9515 8.28124 17.2862 8.38541 17.6062C8.4618 17.8739 8.44792 18.1368 8.34375 18.3948C8.23958 18.6527 8.05902 18.8372 7.80206 18.9483C7.53819 19.0658 7.27257 19.0707 7.00522 18.9629C6.73784 18.8552 6.55902 18.674 6.46875 18.4193C6.30208 17.9425 6.18229 17.4658 6.10938 16.989C6.03646 16.5123 6 16.0257 6 15.5294C6 12.9432 6.97917 10.726 8.9375 8.87774C10.8958 7.02951 13.25 6.10539 16 6.10539H16.9688L15.3229 4.55757C15.1354 4.38124 15.0417 4.16572 15.0417 3.91102C15.0417 3.65634 15.1354 3.44083 15.3229 3.2645C15.5104 3.08817 15.7431 3 16.0208 3C16.2986 3 16.5312 3.08817 16.7187 3.2645L20.0729 6.39927C20.2812 6.5952 20.3854 6.82378 20.3854 7.08503C20.3854 7.34626 20.2812 7.57483 20.0729 7.77076L16.7396 10.9055C16.5521 11.0819 16.316 11.17 16.0312 11.17C15.7465 11.17 15.5104 11.0819 15.3229 10.9055C15.1354 10.7292 15.0417 10.5072 15.0417 10.2394C15.0417 9.97164 15.1354 9.74959 15.3229 9.57325L16.9271 8.06464H16C13.8194 8.06464 11.9549 8.79446 10.4062 10.2541C8.85762 11.7137 8.08331 13.4722 8.08331 15.5294ZM23.9167 15.4706C23.9167 15.1049 23.8924 14.7473 23.8438 14.3979C23.7951 14.0485 23.7188 13.7073 23.6146 13.3742C23.5243 13.1064 23.5313 12.8436 23.6354 12.5856C23.7396 12.3276 23.9202 12.1431 24.1771 12.0321C24.441 11.9146 24.7031 11.9097 24.9635 12.0174C25.2239 12.1252 25.3993 12.3064 25.4896 12.5611C25.6701 13.0379 25.8003 13.5179 25.8802 14.0012C25.9601 14.4844 26 14.9743 26 15.4706C26 18.0568 25.0208 20.274 23.0625 22.1222C21.1042 23.9705 18.75 24.8946 16 24.8946H14.9896L16.6354 26.4424C16.8229 26.6187 16.9167 26.8342 16.9167 27.089C16.9167 27.3437 16.8229 27.5592 16.6354 27.7355C16.4479 27.9118 16.2153 28 15.9375 28C15.6597 28 15.4271 27.9118 15.2396 27.7355L11.8854 24.6007C11.6771 24.4047 11.5729 24.1762 11.5729 23.9149C11.5729 23.6537 11.6771 23.4251 11.8854 23.2292L15.2396 20.0748C15.4271 19.8985 15.6597 19.8103 15.9375 19.8103C16.2153 19.8103 16.4479 19.8985 16.6354 20.0748C16.8229 20.2511 16.9167 20.4699 16.9167 20.7311C16.9167 20.9924 16.8229 21.2112 16.6354 21.3875L14.9896 22.9353H16C18.1806 22.9353 20.0451 22.2055 21.5938 20.7459C23.1424 19.2862 23.9167 17.5278 23.9167 15.4706Z" fill="white"/>
</g>
</svg>
