<svg width="40" height="40" viewBox="0 0 40 40" fill="none" xmlns="http://www.w3.org/2000/svg">
<mask id="mask0_775_9726" style="mask-type:alpha" maskUnits="userSpaceOnUse" x="0" y="0" width="40" height="40">
<rect width="40" height="40" fill="#D9D9D9"/>
</mask>
<g mask="url(#mask0_775_9726)">
<path d="M19.9999 37.4517C17.8276 37.4517 15.7885 37.0435 13.8827 36.2271C11.9769 35.4107 10.3144 34.2928 8.8951 32.8735C7.47583 31.4542 6.35796 29.7943 5.54152 27.8938C4.7251 25.9932 4.31689 23.9541 4.31689 21.7766C4.31689 21.2581 4.49332 20.8224 4.84619 20.4695C5.19905 20.1167 5.63474 19.9402 6.15327 19.9402C6.67177 19.9402 7.10745 20.1167 7.46031 20.4695C7.81317 20.8224 7.9896 21.2581 7.9896 21.7766C7.9896 25.1172 9.1588 27.9501 11.4972 30.2754C13.8355 32.6007 16.6698 33.7633 19.9999 33.7633C23.33 33.7633 26.1642 32.5967 28.5026 30.2636C30.841 27.9305 32.0102 25.0988 32.0102 21.7687C32.0102 18.4282 30.8628 15.5952 28.5681 13.2699C26.2735 10.9447 23.4558 9.78202 20.1152 9.78202H19.4129L21.0705 11.4397C21.3797 11.7488 21.5333 12.1082 21.5313 12.5179C21.5293 12.9275 21.3757 13.2869 21.0705 13.596C20.7614 13.9052 20.3957 14.0582 19.9736 14.055C19.5515 14.0518 19.1859 13.8956 18.8767 13.5864L14.4745 9.18419C14.0973 8.81744 13.9087 8.38347 13.9087 7.88227C13.9087 7.38105 14.0973 6.94707 14.4745 6.58032L18.9045 2.13465C19.1951 1.85446 19.5562 1.71275 19.9875 1.70952C20.4189 1.7063 20.7799 1.85264 21.0705 2.14853C21.3572 2.43919 21.4976 2.80051 21.4917 3.23248C21.4859 3.66445 21.3376 4.02054 21.047 4.30073L19.2541 6.09361H19.9764C22.1591 6.09361 24.2034 6.50182 26.1092 7.31823C28.015 8.13465 29.6789 9.25251 31.1008 10.6718C32.5227 12.0911 33.6418 13.7497 34.4583 15.6477C35.2747 17.5456 35.6829 19.586 35.6829 21.7687C35.6829 23.941 35.2747 25.9801 34.4583 27.8859C33.6418 29.7917 32.524 31.4542 31.1047 32.8735C29.6854 34.2928 28.0229 35.4107 26.1171 36.2271C24.2113 37.0435 22.1722 37.4517 19.9999 37.4517Z" fill="#E8DFEE"/>
</g>
</svg>
