<svg width="40" height="40" viewBox="0 0 40 40" fill="none" xmlns="http://www.w3.org/2000/svg">
<mask id="mask0_689_10548" style="mask-type:alpha" maskUnits="userSpaceOnUse" x="0" y="0" width="40" height="40">
<rect width="40" height="40" fill="#D9D9D9"/>
</mask>
<g mask="url(#mask0_689_10548)">
<path d="M16.4885 35.1927C13.4479 34.4306 10.9408 32.8069 8.96737 30.3216C6.99392 27.8363 6.0072 24.971 6.0072 21.7258C6.0072 19.967 6.34416 18.288 7.01808 16.689C7.69199 15.09 8.6453 13.6918 9.87799 12.4946C10.1803 12.0996 10.599 11.8992 11.134 11.8934C11.6691 11.8876 12.1336 12.0817 12.5278 12.4758C12.8515 12.7995 13.0142 13.1937 13.016 13.6585C13.0178 14.1233 12.8489 14.5497 12.5091 14.9378C11.6137 15.8154 10.9184 16.846 10.423 18.0296C9.92763 19.2132 9.67995 20.4453 9.67995 21.7258C9.67995 24.0962 10.3846 26.181 11.7938 27.9801C13.203 29.7792 15.0083 30.9757 17.2095 31.5695C17.6226 31.7063 17.9641 31.9457 18.234 32.2875C18.5039 32.6292 18.6389 33.004 18.6389 33.4118C18.6389 34.0447 18.42 34.5389 17.9822 34.8943C17.5444 35.2498 17.0465 35.3493 16.4885 35.1927ZM23.5827 35.1927C23.0143 35.3597 22.5112 35.2619 22.0734 34.8992C21.6356 34.5365 21.4167 34.0439 21.4167 33.4215C21.4167 33.0334 21.5516 32.662 21.8215 32.3071C22.0915 31.9522 22.433 31.7063 22.846 31.5695C25.0606 30.9664 26.8645 29.7663 28.2579 27.9692C29.6512 26.1721 30.3478 24.091 30.3478 21.7258C30.3478 18.9332 29.394 16.5451 27.4864 14.5616C25.5788 12.5781 23.2313 11.534 20.4439 11.4293H19.7681L21.0972 12.7585C21.3734 13.0451 21.5115 13.4045 21.5115 13.8367C21.5115 14.2688 21.3734 14.6282 21.0972 14.9149C20.7921 15.22 20.4208 15.3726 19.9834 15.3726C19.546 15.3726 19.184 15.22 18.8974 14.9149L14.7005 10.7458C14.5157 10.561 14.3801 10.3598 14.2938 10.1422C14.2074 9.92461 14.1642 9.69705 14.1642 9.45955C14.1642 9.21155 14.2074 8.98137 14.2938 8.76901C14.3801 8.55665 14.5157 8.35808 14.7005 8.1733L18.8974 3.93714C19.184 3.66097 19.546 3.52289 19.9834 3.52289C20.4208 3.52289 20.7921 3.66097 21.0972 3.93714C21.3734 4.24231 21.5115 4.61358 21.5115 5.05097C21.5115 5.48839 21.3734 5.8504 21.0972 6.13701L19.4855 7.7331H20.1848C24.0483 7.7331 27.3228 9.10004 30.0082 11.8339C32.6935 14.5678 34.0362 17.8652 34.0362 21.7258C34.0362 24.967 33.0515 27.8299 31.0822 30.3146C29.1127 32.7994 26.6129 34.4254 23.5827 35.1927Z" fill="#E8DFEE"/>
</g>
</svg>
