<svg width="31" height="30" viewBox="0 0 31 30" fill="none" xmlns="http://www.w3.org/2000/svg">
<mask id="mask0_130_1731" style="mask-type:alpha" maskUnits="userSpaceOnUse" x="0" y="0" width="31" height="30">
<rect x="0.166748" width="30" height="30" fill="#D9D9D9"/>
</mask>
<g mask="url(#mask0_130_1731)">
<path d="M15.1667 25.5C13.8682 25.5 12.6493 25.2516 11.51 24.7548C10.3708 24.258 9.37693 23.5777 8.52851 22.7141C7.6801 21.8504 7.01186 20.8403 6.52381 19.6838C6.03577 18.5272 5.79175 17.2864 5.79175 15.9613C5.79175 15.6458 5.89721 15.3807 6.10815 15.1659C6.31908 14.9512 6.57953 14.8438 6.8895 14.8438C7.19945 14.8438 7.45989 14.9512 7.67082 15.1659C7.88176 15.3807 7.98722 15.6458 7.98722 15.9613C7.98722 17.9941 8.68615 19.718 10.084 21.133C11.4818 22.548 13.1761 23.2555 15.1667 23.2555C17.1574 23.2555 18.8517 22.5456 20.2495 21.1259C21.6474 19.7061 22.3463 17.983 22.3463 15.9565C22.3463 13.9237 21.6604 12.1998 20.2887 10.7848C18.917 9.36983 17.2326 8.66234 15.2357 8.66234H14.8159L15.8067 9.67104C15.9916 9.85918 16.0834 10.0779 16.0822 10.3272C16.081 10.5764 15.9892 10.7951 15.8067 10.9832C15.6219 11.1714 15.4034 11.2645 15.151 11.2625C14.8987 11.2606 14.6801 11.1655 14.4953 10.9774L11.8638 8.29854C11.6383 8.07536 11.5255 7.81128 11.5255 7.50629C11.5255 7.20129 11.6383 6.9372 11.8638 6.71402L14.5119 4.00873C14.6857 3.83823 14.9015 3.75199 15.1594 3.75003C15.4172 3.74807 15.633 3.83712 15.8067 4.01717C15.9781 4.19405 16.062 4.41392 16.0585 4.67679C16.0551 4.93965 15.9664 5.15634 15.7927 5.32684L14.7209 6.41785H15.1527C16.4575 6.41785 17.6795 6.66625 18.8188 7.16306C19.958 7.65987 20.9526 8.34011 21.8026 9.2038C22.6526 10.0675 23.3216 11.0768 23.8097 12.2317C24.2977 13.3867 24.5417 14.6283 24.5417 15.9565C24.5417 17.2784 24.2977 18.5192 23.8097 19.679C23.3216 20.8387 22.6534 21.8504 21.805 22.7141C20.9566 23.5777 19.9627 24.258 18.8235 24.7548C17.6842 25.2516 16.4653 25.5 15.1667 25.5Z" fill="white"/>
</g>
</svg>
