<svg width="24" height="25" viewBox="0 0 24 25" fill="none" xmlns="http://www.w3.org/2000/svg">
<mask id="mask0_33_2304" style="mask-type:alpha" maskUnits="userSpaceOnUse" x="0" y="0" width="24" height="25">
<rect y="0.5" width="24" height="24" fill="#D9D9D9"/>
</mask>
<g mask="url(#mask0_33_2304)">
<path d="M7.20002 20.9V17.9H5.40002V16.1H7.20002V14.3H5.40002V12.5H7.20002V4.09998H13.5C14.9218 4.09998 16.1273 4.59399 17.1164 5.58203C18.1055 6.57006 18.6 7.77422 18.6 9.19453C18.6 10.6148 18.1055 11.8208 17.1164 12.8125C16.1273 13.8041 14.9218 14.3 13.5 14.3H9.00002V16.1H13.2V17.9H9.00002V20.9H7.20002ZM9.00002 12.5H13.5C14.4167 12.5 15.1959 12.1773 15.8375 11.5319C16.4792 10.8866 16.8 10.1074 16.8 9.19443C16.8 8.28146 16.4779 7.50414 15.8336 6.86248C15.1893 6.22081 14.4115 5.89998 13.5 5.89998H9.00002V12.5Z" fill="#ECECEC"/>
</g>
</svg>
