<svg width="30" height="30" viewBox="0 0 30 30" fill="none" xmlns="http://www.w3.org/2000/svg">
<mask id="mask0_121_1153" style="mask-type:alpha" maskUnits="userSpaceOnUse" x="0" y="0" width="30" height="30">
<rect width="30" height="30" fill="#D9D9D9"/>
</mask>
<g mask="url(#mask0_121_1153)">
<path d="M12.8438 27.5C12.5868 27.5 12.3611 27.4167 12.1667 27.25C11.9722 27.0833 11.8542 26.8715 11.8125 26.6146L11.3542 23.5417C11 23.4097 10.6372 23.2361 10.2656 23.0208C9.8941 22.8056 9.55902 22.5799 9.26042 22.3438L6.41667 23.6146C6.16667 23.7257 5.91667 23.7413 5.66667 23.6615C5.41667 23.5816 5.22222 23.4201 5.08332 23.1771L2.93751 19.3958C2.79861 19.1667 2.76042 18.9236 2.82292 18.6667C2.88542 18.4097 3.02083 18.2014 3.22917 18.0417L5.80211 16.1354C5.76738 15.9618 5.74654 15.7726 5.73961 15.5677C5.73265 15.3628 5.72917 15.1736 5.72917 15C5.72917 14.8264 5.73265 14.6372 5.73961 14.4323C5.74654 14.2274 5.76738 14.0382 5.80211 13.8646L3.22917 11.9583C3.02083 11.7986 2.88542 11.5903 2.82292 11.3333C2.76042 11.0764 2.79861 10.8333 2.93751 10.6042L5.08332 6.82291C5.22222 6.57987 5.41667 6.41841 5.66667 6.33853C5.91667 6.25868 6.16667 6.2743 6.41667 6.38541L9.26042 7.65625C9.55902 7.42015 9.89583 7.19445 10.2709 6.97916C10.6459 6.76389 11.007 6.59722 11.3542 6.47916L11.8125 3.38541C11.8542 3.12847 11.9722 2.91667 12.1667 2.75C12.3611 2.58333 12.5868 2.5 12.8438 2.5H17.1563C17.4132 2.5 17.6389 2.58333 17.8333 2.75C18.0278 2.91667 18.1458 3.12847 18.1875 3.38541L18.6458 6.45834C19 6.59028 19.3663 6.76042 19.7448 6.96875C20.1233 7.17708 20.4549 7.40625 20.7396 7.65625L23.5834 6.38541C23.8334 6.2743 24.0834 6.25868 24.3334 6.33853C24.5834 6.41841 24.7778 6.57987 24.9167 6.82291L27.0625 10.5833C27.2014 10.8125 27.2431 11.059 27.1875 11.3229C27.132 11.5868 26.9931 11.7986 26.7709 11.9583L24.1979 13.8229C24.2326 14.0104 24.2535 14.2066 24.2604 14.4115C24.2674 14.6163 24.2709 14.8125 24.2709 15C24.2709 15.1875 24.2674 15.3802 24.2604 15.5781C24.2535 15.776 24.2292 15.9688 24.1875 16.1563L26.7604 18.0417C26.9688 18.2014 27.1042 18.4097 27.1667 18.6667C27.2292 18.9236 27.191 19.1667 27.0521 19.3958L24.9063 23.1667C24.7674 23.4097 24.5712 23.5729 24.3177 23.6563C24.0643 23.7396 23.8125 23.7257 23.5625 23.6146L20.7396 22.3438C20.441 22.5799 20.1077 22.809 19.7396 23.0313C19.3715 23.2535 19.007 23.4236 18.6458 23.5417L18.1875 26.6146C18.1458 26.8715 18.0278 27.0833 17.8333 27.25C17.6389 27.4167 17.4132 27.5 17.1563 27.5H12.8438ZM15.0209 19.1667C16.1736 19.1667 17.1563 18.7604 17.9688 17.9479C18.7813 17.1354 19.1875 16.1528 19.1875 15C19.1875 13.8472 18.7813 12.8646 17.9688 12.0521C17.1563 11.2396 16.1736 10.8333 15.0209 10.8333C13.8611 10.8333 12.8768 11.2396 12.0677 12.0521C11.2587 12.8646 10.8542 13.8472 10.8542 15C10.8542 16.1528 11.2587 17.1354 12.0677 17.9479C12.8768 18.7604 13.8611 19.1667 15.0209 19.1667Z" fill="#272727"/>
</g>
</svg>
