<svg width="30" height="30" viewBox="0 0 30 30" fill="none" xmlns="http://www.w3.org/2000/svg">
<mask id="mask0_973_426" style="mask-type:alpha" maskUnits="userSpaceOnUse" x="0" y="0" width="30" height="30">
<rect width="30" height="30" fill="white"/>
</mask>
<g mask="url(#mask0_973_426)">
<path d="M13.0499 28C12.793 28 12.5673 27.9167 12.3729 27.75C12.1784 27.5833 12.0604 27.3715 12.0187 27.1146L11.5604 24.0417C11.2062 23.9097 10.8433 23.7361 10.4718 23.5208C10.1003 23.3056 9.7652 23.0799 9.46659 22.8438L6.62284 24.1146C6.37284 24.2257 6.12284 24.2413 5.87284 24.1615C5.62284 24.0816 5.4284 23.9201 5.2895 23.6771L3.14369 19.8958C3.00479 19.6667 2.96659 19.4236 3.02909 19.1667C3.09159 18.9097 3.22701 18.7014 3.43534 18.5417L6.00828 16.6354C5.97355 16.4618 5.95272 16.2726 5.94578 16.0677C5.93882 15.8628 5.93534 15.6736 5.93534 15.5C5.93534 15.3264 5.93882 15.1372 5.94578 14.9323C5.95272 14.7274 5.97355 14.5382 6.00828 14.3646L3.43534 12.4583C3.22701 12.2986 3.09159 12.0903 3.02909 11.8333C2.96659 11.5764 3.00479 11.3333 3.14369 11.1042L5.2895 7.32291C5.4284 7.07987 5.62284 6.91841 5.87284 6.83853C6.12284 6.75868 6.37284 6.7743 6.62284 6.88541L9.46659 8.15625C9.7652 7.92015 10.102 7.69445 10.477 7.47916C10.852 7.26389 11.2131 7.09722 11.5604 6.97916L12.0187 3.88541C12.0604 3.62847 12.1784 3.41667 12.3729 3.25C12.5673 3.08333 12.793 3 13.0499 3H17.3624C17.6194 3 17.8451 3.08333 18.0395 3.25C18.234 3.41667 18.352 3.62847 18.3937 3.88541L18.852 6.95834C19.2062 7.09028 19.5725 7.26042 19.951 7.46875C20.3295 7.67708 20.6611 7.90625 20.9458 8.15625L23.7895 6.88541C24.0395 6.7743 24.2895 6.75868 24.5395 6.83853C24.7895 6.91841 24.984 7.07987 25.1229 7.32291L27.2687 11.0833C27.4076 11.3125 27.4493 11.559 27.3937 11.8229C27.3381 12.0868 27.1992 12.2986 26.977 12.4583L24.4041 14.3229C24.4388 14.5104 24.4597 14.7066 24.4666 14.9115C24.4736 15.1163 24.477 15.3125 24.477 15.5C24.477 15.6875 24.4736 15.8802 24.4666 16.0781C24.4597 16.276 24.4354 16.4688 24.3937 16.6563L26.9666 18.5417C27.1749 18.7014 27.3103 18.9097 27.3728 19.1667C27.4353 19.4236 27.3972 19.6667 27.2583 19.8958L25.1124 23.6667C24.9736 23.9097 24.7774 24.0729 24.5239 24.1563C24.2704 24.2396 24.0187 24.2257 23.7687 24.1146L20.9458 22.8438C20.6472 23.0799 20.3138 23.309 19.9458 23.5313C19.5777 23.7535 19.2131 23.9236 18.852 24.0417L18.3937 27.1146C18.352 27.3715 18.234 27.5833 18.0395 27.75C17.8451 27.9167 17.6194 28 17.3624 28H13.0499ZM15.227 19.6667C16.3798 19.6667 17.3624 19.2604 18.1749 18.4479C18.9874 17.6354 19.3937 16.6528 19.3937 15.5C19.3937 14.3472 18.9874 13.3646 18.1749 12.5521C17.3624 11.7396 16.3798 11.3333 15.227 11.3333C14.0673 11.3333 13.0829 11.7396 12.2739 12.5521C11.4649 13.3646 11.0603 14.3472 11.0603 15.5C11.0603 16.6528 11.4649 17.6354 12.2739 18.4479C13.0829 19.2604 14.0673 19.6667 15.227 19.6667Z" fill="#E8DFEE"/>
</g>
</svg>
