<svg width="41" height="41" viewBox="0 0 41 41" fill="none" xmlns="http://www.w3.org/2000/svg">
<path d="M15.9012 24.5012V17.1547C15.9012 16.7662 16.0395 16.4336 16.3162 16.1569C16.5929 15.8802 16.9255 15.7419 17.314 15.7419H24.6605C25.049 15.7419 25.3816 15.8802 25.6583 16.1569C25.9349 16.4336 26.0733 16.7662 26.0733 17.1547V24.5012C26.0733 24.8897 25.9349 25.2223 25.6583 25.499C25.3816 25.7756 25.049 25.914 24.6605 25.914H17.314C16.9255 25.914 16.5929 25.7756 16.3162 25.499C16.0395 25.2223 15.9012 24.8897 15.9012 24.5012Z" fill="#1E1A24"/>
<path d="M7.09839 20.8418C7.09839 23.5733 7.82293 26.0641 9.27201 28.3141C9.7351 29.0331 10.2495 29.6959 10.8152 30.3024C11.0404 30.5439 11.2737 30.7764 11.5151 31C12.5651 31.9724 13.7688 32.7762 15.1262 33.4113C15.4781 33.5872 15.7304 33.8534 15.8832 34.2099C16.036 34.5664 16.0197 34.9113 15.8346 35.2446C15.6123 35.6057 15.3045 35.8395 14.9109 35.946C14.5174 36.0525 14.1216 36.0131 13.7234 35.8279C10.8253 34.4391 8.53362 32.3974 6.84843 29.7029C5.16324 27.0085 4.32064 24.0548 4.32064 20.8418C4.32064 20.0085 4.38314 19.1751 4.50814 18.3418C4.63314 17.5085 4.82528 16.689 5.08455 15.8835L3.79285 16.6335C3.45951 16.8279 3.11229 16.8812 2.75118 16.7932C2.39007 16.7052 2.11693 16.4946 1.93176 16.1613C1.74657 15.8279 1.70258 15.4738 1.7998 15.0988C1.89703 14.7238 2.1123 14.4437 2.44564 14.2585L7.4873 11.3418C7.82064 11.1567 8.1748 11.1127 8.5498 11.2099C8.9248 11.3071 9.20489 11.5224 9.39005 11.8557L10.8152 14.2988L12.3067 16.8557C12.4919 17.1891 12.5359 17.5432 12.4387 17.9182C12.3415 18.2932 12.1262 18.5733 11.7928 18.7585C11.4848 18.9297 11.1589 18.9802 10.8152 18.9101C10.787 18.9044 10.7587 18.8978 10.7303 18.8904C10.3553 18.7932 10.0753 18.5779 9.8901 18.2446L8.22339 15.3974C7.86228 16.2677 7.5845 17.1566 7.39005 18.064C7.19561 18.9714 7.09839 19.8974 7.09839 20.8418ZM20.9873 6.93903C19.5521 6.93903 18.1632 7.1543 16.8206 7.58486C15.478 8.01544 14.2234 8.6474 13.0567 9.48073C12.7141 9.70296 12.3507 9.79786 11.9664 9.76544C11.5822 9.73305 11.2975 9.55019 11.1123 9.21686C10.8993 8.84647 10.8438 8.45526 10.9456 8.04323C11.0475 7.63121 11.2743 7.30945 11.6261 7.07798C13.0058 6.13351 14.4896 5.41127 16.0776 4.91127C17.6655 4.41127 19.3021 4.16127 20.9873 4.16127C23.3299 4.16127 25.5591 4.62655 27.6748 5.55711C29.7906 6.48766 31.6401 7.81405 33.2234 9.53627V8.05015C33.2234 7.65201 33.3554 7.321 33.6193 7.05711C33.8832 6.79322 34.2142 6.66127 34.6123 6.66127C35.0104 6.66127 35.3415 6.79322 35.6053 7.05711C35.8692 7.321 36.0012 7.65201 36.0012 8.05015V13.8835C36.0012 14.2816 35.8692 14.6126 35.6053 14.8765C35.3415 15.1404 35.0104 15.2724 34.6123 15.2724H31.1593H28.779C28.3808 15.2724 28.0498 15.1404 27.7859 14.8765C27.522 14.6126 27.3901 14.2816 27.3901 13.8835C27.3901 13.4853 27.522 13.1543 27.7859 12.8904C28.0498 12.6266 28.3808 12.4946 28.779 12.4946H31.1593H32.0984C31.8014 12.0993 31.4884 11.7238 31.1593 11.3679C30.931 11.1211 30.695 10.8837 30.4512 10.6559C29.4907 9.75799 28.4101 9.00747 27.2096 8.40432C25.2651 7.42746 23.191 6.93903 20.9873 6.93903ZM31.3484 30.1196C32.6447 28.6566 33.5892 27.0131 34.1818 25.189C34.7744 23.3649 34.9688 21.4899 34.7651 19.564C34.7281 19.1659 34.8322 18.814 35.0776 18.5084C35.323 18.2029 35.6355 18.0501 36.0151 18.0501C36.4318 18.0501 36.7859 18.2076 37.0776 18.5224C37.3693 18.8372 37.5336 19.2122 37.5706 19.6474C37.7188 21.7492 37.4942 23.7886 36.897 25.7654C36.2998 27.7423 35.3484 29.5548 34.0428 31.2029C32.8669 32.6844 31.4943 33.9252 29.9248 34.9252C28.3554 35.9252 26.6493 36.6382 24.8067 37.0641L26.0012 37.7585C26.3345 37.9437 26.5428 38.2238 26.6262 38.5988C26.7095 38.9738 26.6586 39.3279 26.4734 39.6613C26.2882 39.9946 26.0151 40.2029 25.654 40.2863C25.2929 40.3696 24.9456 40.3187 24.6123 40.1335L19.529 37.2168C19.1956 37.0316 18.9804 36.7516 18.8831 36.3766C18.7859 36.0016 18.8299 35.6474 19.0151 35.3141L21.5247 31L21.9318 30.3002C22.117 29.9669 22.3947 29.7539 22.7651 29.6613C23.1355 29.5687 23.4873 29.615 23.8206 29.8002C24.154 29.9854 24.3646 30.2608 24.4526 30.6266C24.483 30.753 24.4971 30.8775 24.4948 31C24.4906 31.232 24.4279 31.457 24.3068 31.6751L22.5984 34.6613C24.2929 34.4761 25.8924 33.9923 27.397 33.2099C28.5392 32.616 29.5733 31.8793 30.4993 31C30.7258 30.785 30.9458 30.5614 31.1593 30.3293C31.2229 30.2602 31.286 30.1903 31.3484 30.1196Z" fill="#1E1A24"/>
<path fill-rule="evenodd" clip-rule="evenodd" d="M10.8152 14.2988L9.39005 11.8557C9.20489 11.5224 8.9248 11.3071 8.5498 11.2099C8.1748 11.1127 7.82064 11.1567 7.4873 11.3418L2.44564 14.2585C2.1123 14.4437 1.89703 14.7238 1.7998 15.0988C1.70258 15.4738 1.74657 15.8279 1.93176 16.1613C2.11693 16.4946 2.39007 16.7052 2.75118 16.7932C3.11229 16.8812 3.45951 16.8279 3.79285 16.6335L5.08455 15.8835C4.82528 16.689 4.63314 17.5085 4.50814 18.3418C4.38314 19.1751 4.32064 20.0085 4.32064 20.8418C4.32064 24.0548 5.16324 27.0085 6.84843 29.7029C8.53362 32.3974 10.8253 34.4391 13.7234 35.8279C14.1216 36.0131 14.5174 36.0525 14.9109 35.946C15.3045 35.8395 15.6123 35.6057 15.8346 35.2446C16.0197 34.9113 16.036 34.5664 15.8832 34.2099C15.7304 33.8534 15.4781 33.5872 15.1262 33.4113C13.7688 32.7762 12.5651 31.9724 11.5151 31C11.2737 30.7764 11.0404 30.5439 10.8152 30.3024C10.2495 29.6959 9.7351 29.0331 9.27201 28.3141C7.82293 26.0641 7.09839 23.5733 7.09839 20.8418C7.09839 19.8974 7.19561 18.9714 7.39005 18.064C7.5845 17.1566 7.86228 16.2677 8.22339 15.3974L9.8901 18.2446C10.0753 18.5779 10.3553 18.7932 10.7303 18.8904C10.7587 18.8978 10.787 18.9044 10.8152 18.9101C11.1589 18.9802 11.4848 18.9297 11.7928 18.7585C12.1262 18.5733 12.3415 18.2932 12.4387 17.9182C12.5359 17.5432 12.4919 17.1891 12.3067 16.8557L10.8152 14.2988ZM19.0151 35.3141L21.5247 31L21.9318 30.3002C22.117 29.9669 22.3947 29.7539 22.7651 29.6613C23.1355 29.5687 23.4873 29.615 23.8206 29.8002C24.154 29.9854 24.3646 30.2608 24.4526 30.6266C24.483 30.753 24.4971 30.8775 24.4948 31C24.4906 31.232 24.4279 31.457 24.3068 31.6751L22.5984 34.6613C24.2929 34.4761 25.8924 33.9923 27.397 33.2099C28.5392 32.616 29.5733 31.8793 30.4993 31C30.7258 30.785 30.9458 30.5614 31.1593 30.3293C31.2229 30.2602 31.286 30.1903 31.3484 30.1196C32.6447 28.6566 33.5892 27.0131 34.1818 25.189C34.7744 23.3649 34.9688 21.4899 34.7651 19.564C34.7281 19.1659 34.8322 18.814 35.0776 18.5084C35.323 18.2029 35.6355 18.0501 36.0151 18.0501C36.4318 18.0501 36.7859 18.2076 37.0776 18.5224C37.3693 18.8372 37.5336 19.2122 37.5706 19.6474C37.7188 21.7492 37.4942 23.7886 36.897 25.7654C36.2998 27.7423 35.3484 29.5548 34.0428 31.2029C32.8669 32.6844 31.4943 33.9252 29.9248 34.9252C28.3554 35.9252 26.6493 36.6382 24.8067 37.0641L26.0012 37.7585C26.3345 37.9437 26.5428 38.2238 26.6262 38.5988C26.7095 38.9738 26.6586 39.3279 26.4734 39.6613C26.2882 39.9946 26.0151 40.2029 25.654 40.2863C25.2929 40.3696 24.9456 40.3187 24.6123 40.1335L19.529 37.2168C19.1956 37.0316 18.9804 36.7516 18.8831 36.3766C18.7859 36.0016 18.8299 35.6474 19.0151 35.3141ZM34.6123 15.2724H31.1593H28.779C28.3808 15.2724 28.0498 15.1404 27.7859 14.8765C27.522 14.6126 27.3901 14.2816 27.3901 13.8835C27.3901 13.4853 27.522 13.1543 27.7859 12.8904C28.0498 12.6266 28.3808 12.4946 28.779 12.4946H31.1593H32.0984C31.8014 12.0993 31.4884 11.7238 31.1593 11.3679C30.931 11.1211 30.695 10.8837 30.4512 10.6559C29.4907 9.75799 28.4101 9.00747 27.2096 8.40432C25.2651 7.42746 23.191 6.93903 20.9873 6.93903C19.5521 6.93903 18.1632 7.1543 16.8206 7.58486C15.478 8.01544 14.2234 8.6474 13.0567 9.48073C12.7141 9.70296 12.3507 9.79786 11.9664 9.76544C11.5822 9.73305 11.2975 9.55019 11.1123 9.21686C10.8993 8.84647 10.8438 8.45526 10.9456 8.04323C11.0475 7.63121 11.2743 7.30945 11.6261 7.07798C13.0058 6.13351 14.4896 5.41127 16.0776 4.91127C17.6655 4.41127 19.3021 4.16127 20.9873 4.16127C23.3299 4.16127 25.5591 4.62655 27.6748 5.55711C29.7906 6.48766 31.6401 7.81405 33.2234 9.53627V8.05015C33.2234 7.65201 33.3554 7.321 33.6193 7.05711C33.8832 6.79322 34.2142 6.66127 34.6123 6.66127C35.0104 6.66127 35.3415 6.79322 35.6053 7.05711C35.8692 7.321 36.0012 7.65201 36.0012 8.05015V13.8835C36.0012 14.2816 35.8692 14.6126 35.6053 14.8765C35.3415 15.1404 35.0104 15.2724 34.6123 15.2724ZM15.9012 17.1547V24.5012C15.9012 24.8897 16.0395 25.2223 16.3162 25.499C16.5929 25.7756 16.9255 25.914 17.314 25.914H24.6605C25.049 25.914 25.3816 25.7756 25.6583 25.499C25.9349 25.2223 26.0733 24.8897 26.0733 24.5012V17.1547C26.0733 16.7662 25.9349 16.4336 25.6583 16.1569C25.3816 15.8802 25.049 15.7419 24.6605 15.7419H17.314C16.9255 15.7419 16.5929 15.8802 16.3162 16.1569C16.0395 16.4336 15.9012 16.7662 15.9012 17.1547Z" fill="#1E1A24"/>
</svg>
