<svg width="30" height="30" viewBox="0 0 30 30" fill="none" xmlns="http://www.w3.org/2000/svg">
<mask id="mask0_433_3673" style="mask-type:alpha" maskUnits="userSpaceOnUse" x="0" y="0" width="30" height="30">
<rect width="30" height="30" fill="#D9D9D9"/>
</mask>
<g mask="url(#mask0_433_3673)">
<path d="M5.9375 23.75C5.375 23.75 4.88716 23.5434 4.47397 23.1302C4.06076 22.717 3.85416 22.2292 3.85416 21.6667V9.27081C3.55555 9.27081 3.30729 9.17064 3.10938 8.97028C2.91146 8.76993 2.8125 8.52167 2.8125 8.2255C2.8125 7.92933 2.91233 7.68229 3.112 7.48437C3.31165 7.28646 3.55903 7.1875 3.85416 7.1875H7.70834V6.66384C7.70834 6.36711 7.80817 6.11979 8.00781 5.92187C8.20746 5.72396 8.45485 5.625 8.75 5.625H11.1458C11.441 5.625 11.6884 5.72482 11.888 5.92447C12.0877 6.12414 12.1875 6.37153 12.1875 6.66666V7.1875H16.0417C16.3368 7.1875 16.5842 7.28768 16.7838 7.48803C16.9835 7.68839 17.0833 7.93665 17.0833 8.23281C17.0833 8.52898 16.9835 8.77602 16.7838 8.97394C16.5842 9.17185 16.3368 9.27081 16.0417 9.27081V21.6667C16.0417 22.2292 15.8351 22.717 15.4219 23.1302C15.0087 23.5434 14.5208 23.75 13.9583 23.75H5.9375ZM19.7917 22.7083C19.4965 22.7083 19.2491 22.6082 19.0495 22.4078C18.8498 22.2075 18.75 21.9592 18.75 21.663C18.75 21.3668 18.8498 21.1198 19.0495 20.9219C19.2491 20.724 19.4965 20.625 19.7917 20.625H22.3958C22.691 20.625 22.9384 20.7252 23.138 20.9255C23.3377 21.1259 23.4375 21.3742 23.4375 21.6703C23.4375 21.9665 23.3377 22.2136 23.138 22.4115C22.9384 22.6094 22.691 22.7083 22.3958 22.7083H19.7917ZM19.7917 17.2083C19.4965 17.2083 19.2491 17.1081 19.0495 16.9078C18.8498 16.7074 18.75 16.4592 18.75 16.163C18.75 15.8668 18.8498 15.6198 19.0495 15.4219C19.2491 15.224 19.4965 15.125 19.7917 15.125H25.1042C25.3993 15.125 25.6467 15.2252 25.8463 15.4255C26.046 15.6259 26.1458 15.8741 26.1458 16.1703C26.1458 16.4665 26.046 16.7135 25.8463 16.9114C25.6467 17.1094 25.3993 17.2083 25.1042 17.2083H19.7917ZM19.7917 11.7083C19.4965 11.7083 19.2491 11.6081 19.0495 11.4078C18.8498 11.2074 18.75 10.9592 18.75 10.663C18.75 10.3668 18.8498 10.1198 19.0495 9.92187C19.2491 9.72396 19.4965 9.625 19.7917 9.625H26.4583C26.7535 9.625 27.0009 9.72518 27.2005 9.92553C27.4002 10.1259 27.5 10.3741 27.5 10.6703C27.5 10.9665 27.4002 11.2135 27.2005 11.4114C27.0009 11.6094 26.7535 11.7083 26.4583 11.7083H19.7917Z" fill="white"/>
</g>
</svg>
