<svg width="30" height="30" viewBox="0 0 30 30" fill="none" xmlns="http://www.w3.org/2000/svg">
<mask id="mask0_460_3666" style="mask-type:alpha" maskUnits="userSpaceOnUse" x="0" y="0" width="30" height="30">
<rect width="30" height="30" fill="#D9D9D9"/>
</mask>
<g mask="url(#mask0_460_3666)">
<path d="M25.2499 28.0833L19.9999 22.9167C19.1874 23.2014 18.3645 23.4115 17.5312 23.5469C16.6978 23.6823 15.8541 23.75 14.9999 23.75C12.1805 23.75 9.6145 22.9757 7.302 21.4271C4.9895 19.8785 3.15617 17.8611 1.802 15.375C1.71171 15.2153 1.64747 15.0538 1.60928 14.8906C1.5711 14.7274 1.552 14.5556 1.552 14.375C1.552 14.1944 1.5711 14.0226 1.60928 13.8594C1.64747 13.6962 1.71171 13.5347 1.802 13.375C2.31588 12.4653 2.86796 11.5833 3.45825 10.7292C4.04852 9.87499 4.73602 9.10416 5.52075 8.41666L1.74991 4.62497L3.20822 3.14581L26.6458 26.5833L25.2499 28.0833ZM14.9999 19.7917C15.2707 19.7917 15.5416 19.7743 15.8124 19.7396C16.0832 19.7049 16.3506 19.6354 16.6145 19.5313L9.84366 12.7604C9.75339 13.0243 9.68742 13.2917 9.64575 13.5625C9.60409 13.8333 9.58325 14.1042 9.58325 14.375C9.58325 15.8819 10.1093 17.1614 11.1614 18.2135C12.2135 19.2656 13.493 19.7917 14.9999 19.7917ZM23.8332 20.8125L19.8228 16.8125C20.0242 16.4444 20.1735 16.0521 20.2707 15.6354C20.368 15.2187 20.4166 14.7986 20.4166 14.375C20.4166 12.8681 19.8905 11.5886 18.8384 10.5365C17.7864 9.48439 16.5068 8.95834 14.9999 8.95834C14.5763 8.95834 14.1562 9.00696 13.7395 9.10419C13.3228 9.2014 12.9305 9.35417 12.5624 9.5625L9.20822 6.1875C10.1388 5.77777 11.0989 5.47743 12.0884 5.28647C13.078 5.09549 14.0832 5 15.1041 5C17.9096 5 20.4669 5.77951 22.7759 7.33853C25.085 8.89757 26.9027 10.9201 28.2291 13.4063C28.3194 13.559 28.3836 13.7135 28.4218 13.8698C28.46 14.026 28.4791 14.1944 28.4791 14.375C28.4791 14.5556 28.4617 14.724 28.427 14.8802C28.3923 15.0365 28.3298 15.191 28.2395 15.3438C27.6839 16.4063 27.0503 17.4062 26.3384 18.3438C25.6266 19.2812 24.7916 20.1042 23.8332 20.8125ZM18.302 15.2917L14.0937 11.0833C14.677 10.8958 15.269 10.8785 15.8697 11.0312C16.4704 11.184 16.9895 11.4792 17.427 11.9167C17.8645 12.3611 18.1648 12.8854 18.328 13.4896C18.4912 14.0938 18.4825 14.6945 18.302 15.2917Z" fill="white"/>
</g>
</svg>
