<svg width="30" height="30" viewBox="0 0 30 30" fill="none" xmlns="http://www.w3.org/2000/svg">
<mask id="mask0_874_4071" style="mask-type:alpha" maskUnits="userSpaceOnUse" x="0" y="0" width="30" height="30">
<rect width="30" height="30" fill="#D9D9D9"/>
</mask>
<g mask="url(#mask0_874_4071)">
<path d="M15.0024 19.7917C16.5077 19.7917 17.7864 19.2648 18.8385 18.2111C19.8906 17.1574 20.4166 15.8779 20.4166 14.3726C20.4166 12.8672 19.8898 11.5886 18.8361 10.5365C17.7823 9.48439 16.5028 8.95834 14.9975 8.95834C13.4922 8.95834 12.2135 9.4852 11.1614 10.5389C10.1094 11.5926 9.58331 12.8721 9.58331 14.3774C9.58331 15.8828 10.1102 17.1614 11.1639 18.2135C12.2176 19.2656 13.4971 19.7917 15.0024 19.7917ZM14.9951 17.8333C14.0331 17.8333 13.217 17.4966 12.5468 16.8232C11.8767 16.1498 11.5416 15.3321 11.5416 14.3701C11.5416 13.4081 11.8783 12.592 12.5518 11.9219C13.2251 11.2517 14.0429 10.9167 15.0049 10.9167C15.9669 10.9167 16.7829 11.2534 17.4531 11.9268C18.1232 12.6002 18.4583 13.4179 18.4583 14.3799C18.4583 15.3419 18.1216 16.158 17.4482 16.8281C16.7748 17.4983 15.9571 17.8333 14.9951 17.8333ZM15 23.75C12.1944 23.75 9.64058 22.9722 7.3385 21.4167C5.03642 19.8611 3.19788 17.8542 1.82288 15.3958C1.7326 15.2344 1.6649 15.0684 1.61975 14.898C1.57463 14.7276 1.55206 14.5527 1.55206 14.3733C1.55206 14.1939 1.57463 14.0193 1.61975 13.8497C1.6649 13.6801 1.7326 13.5149 1.82288 13.3542C3.19788 10.8958 5.03642 8.88889 7.3385 7.33334C9.64058 5.77778 12.1944 5 15 5C17.8055 5 20.3594 5.77778 22.6614 7.33334C24.9635 8.88889 26.8021 10.8958 28.1771 13.3542C28.2673 13.5156 28.335 13.6816 28.3802 13.852C28.4253 14.0224 28.4479 14.1973 28.4479 14.3768C28.4479 14.5561 28.4253 14.7307 28.3802 14.9003C28.335 15.0699 28.2673 15.2351 28.1771 15.3958C26.8021 17.8542 24.9635 19.8611 22.6614 21.4167C20.3594 22.9722 17.8055 23.75 15 23.75Z" fill="#1C1B1F"/>
</g>
</svg>
