<svg width="30" height="30" viewBox="0 0 30 30" fill="none" xmlns="http://www.w3.org/2000/svg">
<mask id="mask0_804_5013" style="mask-type:alpha" maskUnits="userSpaceOnUse" x="0" y="0" width="30" height="30">
<rect width="30" height="30" fill="#1E1A24"/>
</mask>
<g mask="url(#mask0_804_5013)">
<path d="M25.2499 28.0833L19.9999 22.9167C19.1874 23.2014 18.3645 23.4115 17.5312 23.5469C16.6978 23.6823 15.8541 23.75 14.9999 23.75C12.1805 23.75 9.6145 22.9757 7.302 21.4271C4.9895 19.8785 3.15617 17.8611 1.802 15.375C1.71171 15.2153 1.64747 15.0538 1.60928 14.8907C1.5711 14.7275 1.552 14.5556 1.552 14.375C1.552 14.1945 1.5711 14.0226 1.60928 13.8594C1.64747 13.6962 1.71171 13.5348 1.802 13.375C2.31588 12.4653 2.86796 11.5834 3.45825 10.7292C4.04852 9.87502 4.73602 9.10419 5.52075 8.41669L1.74991 4.625L3.20822 3.14584L26.6458 26.5834L25.2499 28.0833ZM14.9999 19.7917C15.2707 19.7917 15.5416 19.7743 15.8124 19.7396C16.0832 19.7049 16.3506 19.6354 16.6145 19.5313L9.84366 12.7604C9.75339 13.0243 9.68742 13.2917 9.64575 13.5625C9.60409 13.8334 9.58325 14.1042 9.58325 14.375C9.58325 15.882 10.1093 17.1615 11.1614 18.2136C12.2135 19.2656 13.493 19.7917 14.9999 19.7917ZM23.8332 20.8125L19.8228 16.8125C20.0242 16.4445 20.1735 16.0521 20.2707 15.6354C20.368 15.2188 20.4166 14.7986 20.4166 14.375C20.4166 12.8681 19.8905 11.5886 18.8384 10.5365C17.7864 9.48442 16.5068 8.95837 14.9999 8.95837C14.5763 8.95837 14.1562 9.00699 13.7395 9.10422C13.3228 9.20143 12.9305 9.3542 12.5624 9.56253L9.20822 6.18753C10.1388 5.7778 11.0989 5.47746 12.0884 5.2865C13.078 5.09552 14.0832 5.00003 15.1041 5.00003C17.9096 5.00003 20.4669 5.77954 22.7759 7.33856C25.085 8.8976 26.9027 10.9202 28.2291 13.4063C28.3194 13.5591 28.3836 13.7136 28.4218 13.8698C28.46 14.0261 28.4791 14.1945 28.4791 14.375C28.4791 14.5556 28.4617 14.724 28.427 14.8802C28.3923 15.0365 28.3298 15.191 28.2395 15.3438C27.6839 16.4063 27.0503 17.4063 26.3384 18.3438C25.6266 19.2813 24.7916 20.1042 23.8332 20.8125ZM18.302 15.2917L14.0937 11.0834C14.677 10.8959 15.269 10.8785 15.8697 11.0313C16.4704 11.1841 16.9895 11.4792 17.427 11.9167C17.8645 12.3611 18.1648 12.8855 18.328 13.4896C18.4912 14.0938 18.4825 14.6945 18.302 15.2917Z" fill="#1E1A24"/>
</g>
</svg>
