<svg width="30" height="30" viewBox="0 0 30 30" fill="none" xmlns="http://www.w3.org/2000/svg">
<mask id="mask0_919_4124" style="mask-type:alpha" maskUnits="userSpaceOnUse" x="0" y="0" width="30" height="30">
<rect width="30" height="30" fill="#D9D9D9"/>
</mask>
<g mask="url(#mask0_919_4124)">
<path d="M3.05201 26.25C2.85064 26.25 2.6725 26.2023 2.5176 26.1068C2.36271 26.0113 2.24224 25.8854 2.1562 25.7292C2.06359 25.575 2.01266 25.408 2.00339 25.2282C1.99414 25.0483 2.04507 24.8681 2.1562 24.6875L14.0937 4.06253C14.2048 3.88197 14.3385 3.75002 14.4947 3.66669C14.651 3.58335 14.8194 3.54169 14.9999 3.54169C15.1805 3.54169 15.3489 3.58335 15.5052 3.66669C15.6614 3.75002 15.7951 3.88197 15.9062 4.06253L27.8437 24.6875C27.9548 24.8681 28.0057 25.0483 27.9965 25.2282C27.9872 25.408 27.9363 25.575 27.8437 25.7292C27.7577 25.8854 27.6372 26.0113 27.4823 26.1068C27.3274 26.2023 27.1493 26.25 26.9479 26.25H3.05201ZM15.0869 22.5625C15.3831 22.5625 15.6302 22.4624 15.8281 22.262C16.026 22.0616 16.1249 21.8134 16.1249 21.5172C16.1249 21.2211 16.0248 20.974 15.8244 20.7761C15.6241 20.5782 15.3758 20.4792 15.0796 20.4792C14.7834 20.4792 14.5364 20.5794 14.3385 20.7797C14.1406 20.9801 14.0416 21.2284 14.0416 21.5245C14.0416 21.8207 14.1418 22.0677 14.3422 22.2657C14.5425 22.4636 14.7908 22.5625 15.0869 22.5625ZM15.0869 19C15.3831 19 15.6302 18.9002 15.8281 18.7006C16.026 18.5009 16.1249 18.2535 16.1249 17.9584V13.2917C16.1249 12.9965 16.0248 12.7491 15.8244 12.5495C15.6241 12.3499 15.3758 12.25 15.0796 12.25C14.7834 12.25 14.5364 12.3499 14.3385 12.5495C14.1406 12.7491 14.0416 12.9965 14.0416 13.2917V17.9584C14.0416 18.2535 14.1418 18.5009 14.3422 18.7006C14.5425 18.9002 14.7908 19 15.0869 19Z" fill="#F9A148"/>
</g>
</svg>
